<svg width="16" height="16" viewBox="0 0 16 16" fill="none" xmlns="http://www.w3.org/2000/svg">
<g clip-path="url(#clip0_68_4302)">
<path d="M5.84638 9.52399C5.85699 9.50462 5.86756 9.48521 5.87817 9.46584C5.847 9.49564 5.81526 9.52487 5.7848 9.55538C4.71138 10.6288 3.63756 11.7016 2.56625 12.7771C2.50145 12.8421 2.4525 12.8526 2.36785 12.8128C2.03568 12.6568 1.68607 12.6185 1.32705 12.6946C0.433271 12.8841 -0.126836 13.7395 0.0377535 14.6593C0.192131 15.522 1.05558 16.1176 1.94363 15.9741C3.01736 15.8005 3.64297 14.6625 3.20414 13.6683C3.15255 13.5514 3.17297 13.4908 3.25714 13.4071C4.32805 12.342 5.39531 11.2732 6.46323 10.2051C6.49017 10.1781 6.51416 10.1482 6.53956 10.1198C6.52015 10.1325 6.50074 10.1452 6.48132 10.1579C6.26972 9.94657 6.05803 9.7353 5.84638 9.52399ZM6.53005 5.8724C6.5095 5.8507 6.48044 5.81856 6.44985 5.78801C5.37638 4.71424 4.30336 3.64007 3.22791 2.56829C3.16382 2.50441 3.1496 2.45572 3.19027 2.37005C3.34949 2.03442 3.38801 1.68012 3.30701 1.31838C3.11047 0.440689 2.2777 -0.115367 1.38942 0.0316703C0.456029 0.186236 -0.172265 1.12433 0.0435201 2.04133C0.290207 3.08978 1.4084 3.63778 2.38493 3.18518C2.46065 3.1501 2.50132 3.16454 2.55489 3.21824C3.63232 4.29835 4.71125 5.37701 5.79013 6.45571C5.82001 6.48555 5.85241 6.51289 5.87222 6.53094C6.09584 6.30708 6.30943 6.09331 6.53005 5.8724ZM9.4553 10.1582C9.49201 10.1836 9.54004 10.2073 9.57596 10.2432C10.6427 11.3079 11.7078 12.3743 12.7754 13.4382C12.8399 13.5025 12.8413 13.5502 12.8136 13.6372C12.7476 13.845 12.6715 14.0595 12.6632 14.2737C12.6198 15.3856 13.6307 16.1472 14.6028 15.9765C15.5409 15.8118 16.1701 14.8957 15.9606 13.9742C15.7233 12.9299 14.6152 12.3737 13.6368 12.8118C13.5476 12.8517 13.4978 12.8404 13.4301 12.7724C12.359 11.6964 11.2849 10.6234 10.2112 9.5501C10.1818 9.52073 10.1488 9.49507 10.1334 9.48155C9.91007 9.7044 9.69833 9.91571 9.4553 10.1582ZM10.1344 6.52672C10.152 6.51056 10.1819 6.48525 10.2095 6.45769C11.2777 5.38982 12.3463 4.32234 13.4122 3.25227C13.477 3.18725 13.5243 3.17792 13.6095 3.21697C13.9607 3.378 14.3266 3.41142 14.704 3.31963C15.4239 3.14459 15.9512 2.49728 15.9691 1.76275C15.9879 0.987237 15.5065 0.298935 14.7829 0.101359C14.1078 -0.0830101 13.5091 0.0769261 13.0475 0.606217C12.5928 1.12772 12.513 1.73215 12.7798 2.37207C12.825 2.4805 12.8058 2.53734 12.7282 2.61455C11.668 3.66997 10.611 4.72868 9.55342 5.78673C9.52305 5.81711 9.49474 5.84955 9.47625 5.86945C9.69811 6.09106 9.91196 6.30458 10.1344 6.52672ZM10.5498 8.47197C10.5804 8.47197 10.6164 8.47197 10.6523 8.47197C11.2976 8.47184 11.9428 8.47377 12.5881 8.46933C12.6864 8.46867 12.7331 8.49288 12.769 8.5918C13.0656 9.40896 13.9635 9.85108 14.8073 9.60231C15.6388 9.35719 16.1505 8.49077 15.9617 7.64807C15.804 6.94441 15.189 6.40275 14.5055 6.34164C13.651 6.26522 12.9946 6.78967 12.769 7.41563C12.733 7.51539 12.6835 7.537 12.5865 7.53639C11.9486 7.53229 11.3106 7.53427 10.6728 7.53427C10.6297 7.53427 10.5866 7.53427 10.5499 7.53427C10.5498 7.8486 10.5498 8.15042 10.5498 8.47197ZM8.47053 5.45673C8.47053 5.42077 8.47053 5.38123 8.47053 5.34166C8.47053 4.69236 8.47172 4.04306 8.46899 3.39376C8.46864 3.31399 8.48775 3.27499 8.56923 3.24197C9.24004 2.97008 9.62086 2.47522 9.66404 1.7473C9.73201 0.601858 8.59718 -0.270593 7.50421 0.0783348C6.81319 0.298979 6.35287 0.91341 6.33139 1.64393C6.31092 2.33888 6.7498 2.98932 7.41652 3.23687C7.51086 3.27186 7.53586 3.31483 7.53529 3.40957C7.53128 4.05517 7.533 4.70081 7.53335 5.34646C7.5334 5.38823 7.53731 5.42997 7.53864 5.45673C7.85426 5.45673 8.15355 5.45673 8.47053 5.45673ZM5.45778 7.53414C5.42604 7.53414 5.39038 7.53414 5.35473 7.53414C5.09809 7.53419 4.84141 7.53088 4.58486 7.53626C4.50497 7.53793 4.46997 7.51006 4.44369 7.43668C4.20951 6.78289 3.61841 6.35076 2.92004 6.33817C2.26762 6.32641 1.76144 6.60842 1.43459 7.17025C1.11417 7.72098 1.11408 8.29698 1.43917 8.84352C1.80004 9.45021 2.35694 9.73226 3.06011 9.65703C3.74039 9.58421 4.2007 9.19919 4.44673 8.56182C4.47393 8.49134 4.51008 8.46968 4.58346 8.47087C4.84 8.47496 5.09668 8.47219 5.35332 8.47131C5.39166 8.47118 5.43004 8.46717 5.45782 8.46554C5.45778 8.15254 5.45778 7.85366 5.45778 7.53414ZM7.53797 10.5486C7.53657 10.5808 7.53349 10.6202 7.53331 10.6595C7.53238 10.8833 7.52864 11.1071 7.53362 11.3307C7.53542 11.4117 7.50395 11.4424 7.43118 11.4708C6.82899 11.7054 6.44959 12.1414 6.35411 12.7796C6.17455 13.9797 7.23877 14.9392 8.41366 14.6562C9.26342 14.4515 9.82744 13.5524 9.63719 12.7064C9.50002 12.0965 9.13558 11.6846 8.55298 11.4644C8.49369 11.4419 8.46736 11.4136 8.46877 11.3455C8.47357 11.1145 8.4708 10.8834 8.47093 10.6523C8.47093 10.6135 8.47093 10.5748 8.47093 10.5486C8.15434 10.5486 7.85518 10.5486 7.53797 10.5486ZM8.01128 9.62925C8.90783 9.62608 9.63068 8.90141 9.63147 8.00488C9.6323 7.1025 8.90673 6.37625 8.00458 6.37646C7.10522 6.37669 6.37576 7.10734 6.37731 8.00634C6.37885 8.90533 7.11089 9.63242 8.01128 9.62925Z" fill="white"/>
<path d="M5.84538 9.52353C6.05703 9.7348 6.26868 9.94611 6.48037 10.1574C6.49978 10.1447 6.51919 10.1319 6.53861 10.1192C6.51325 10.1477 6.48922 10.1776 6.46228 10.2045C5.39436 11.2726 4.3271 12.3414 3.25618 13.4065C3.17197 13.4903 3.15159 13.5509 3.20318 13.6678C3.64197 14.662 3.01641 15.8 1.94268 15.9735C1.05467 16.1171 0.191174 15.5215 0.0367966 14.6588C-0.127837 13.739 0.432314 12.8835 1.32609 12.6941C1.68516 12.618 2.03472 12.6562 2.3669 12.8123C2.45155 12.852 2.5005 12.8416 2.56529 12.7765C3.6366 11.7011 4.71046 10.6282 5.78384 9.55483C5.8143 9.52437 5.84604 9.49513 5.87721 9.46529C5.86656 9.48474 5.85599 9.50416 5.84538 9.52353Z" fill="#6D80B2"/>
<path d="M6.52909 5.872C6.30846 6.09287 6.09488 6.30669 5.87122 6.53055C5.85141 6.5125 5.81901 6.48516 5.78912 6.45531C4.71028 5.37661 3.63136 4.29795 2.55389 3.21785C2.50031 3.16414 2.45964 3.1497 2.38392 3.18478C1.40739 3.63734 0.2892 3.08939 0.042513 2.04093C-0.173272 1.12393 0.455022 0.185839 1.38842 0.0312733C2.27665 -0.115808 3.10941 0.440292 3.30601 1.31798C3.387 1.67972 3.34853 2.03402 3.18927 2.36965C3.14864 2.45532 3.16285 2.50405 3.2269 2.56789C4.30231 3.63968 5.37538 4.71384 6.44884 5.78761C6.47948 5.81821 6.50853 5.8503 6.52909 5.872Z" fill="#6D80B2"/>
<path d="M9.45432 10.1579C9.69735 9.91533 9.90908 9.70407 10.1324 9.48118C10.1478 9.49465 10.1809 9.52036 10.2102 9.54972C11.2839 10.623 12.358 11.6961 13.4291 12.772C13.4968 12.84 13.5467 12.8513 13.6358 12.8114C14.6142 12.3733 15.7223 12.9295 15.9596 13.9738C16.1691 14.8953 15.5399 15.8114 14.6018 15.9761C13.6297 16.1468 12.6188 15.3852 12.6622 14.2734C12.6705 14.0591 12.7467 13.8446 12.8126 13.6369C12.8403 13.5498 12.839 13.5021 12.7744 13.4378C11.7068 12.3739 10.6417 11.3075 9.57497 10.2428C9.53905 10.207 9.49103 10.1833 9.45432 10.1579Z" fill="#6D80B2"/>
<path d="M10.1335 6.52649C9.911 6.30435 9.69715 6.09084 9.47525 5.86927C9.49374 5.84937 9.52204 5.81693 9.55242 5.78655C10.61 4.7285 11.667 3.66979 12.7272 2.61437C12.8048 2.53711 12.824 2.48028 12.7788 2.37189C12.512 1.73197 12.5918 1.12754 13.0465 0.606037C13.5081 0.0767469 14.1067 -0.0832333 14.7819 0.101136C15.5055 0.298712 15.9869 0.987014 15.9681 1.76253C15.9502 2.49701 15.4229 3.14437 14.703 3.31941C14.3256 3.41115 13.9597 3.37774 13.6085 3.21674C13.5233 3.1777 13.476 3.18703 13.4112 3.25205C12.3453 4.32212 11.2767 5.38964 10.2085 6.45747C10.1809 6.48502 10.1511 6.51034 10.1335 6.52649Z" fill="#6D80B2"/>
<path d="M10.5488 8.47152C10.5488 8.14998 10.5488 7.84816 10.5488 7.53383C10.5855 7.53383 10.6286 7.53383 10.6717 7.53383C11.3096 7.53383 11.9476 7.53185 12.5854 7.53594C12.6825 7.53656 12.732 7.5149 12.768 7.41519C12.9936 6.78922 13.65 6.26477 14.5045 6.3412C15.188 6.4023 15.8029 6.94401 15.9607 7.64763C16.1496 8.49032 15.6377 9.35674 14.8062 9.60186C13.9625 9.85064 13.0646 9.40851 12.768 8.59136C12.7321 8.49244 12.6854 8.46818 12.587 8.46888C11.9418 8.47333 11.2965 8.47139 10.6513 8.47152C10.6154 8.47152 10.5795 8.47152 10.5488 8.47152Z" fill="#6D80B2"/>
<path d="M8.46955 5.45636C8.15261 5.45636 7.85327 5.45636 7.53761 5.45636C7.53624 5.4296 7.53233 5.38786 7.53233 5.34608C7.53197 4.70044 7.53026 4.0548 7.53426 3.4092C7.53483 3.3145 7.50983 3.27154 7.4155 3.23649C6.74877 2.98895 6.30994 2.33851 6.33037 1.64356C6.35189 0.913038 6.81216 0.298563 7.50318 0.0779627C8.59615 -0.271009 9.73098 0.601442 9.66302 1.74693C9.61983 2.47485 9.23897 2.96971 8.5682 3.2416C8.48672 3.27462 8.46766 3.31362 8.46797 3.39339C8.47069 4.04269 8.46951 4.69199 8.46951 5.34128C8.46955 5.38086 8.46955 5.42044 8.46955 5.45636Z" fill="#6D80B2"/>
<path d="M5.4568 7.53379C5.4568 7.85336 5.4568 8.15219 5.4568 8.46515C5.42902 8.46673 5.39068 8.47078 5.35229 8.47091C5.09566 8.4718 4.83898 8.47457 4.58243 8.47047C4.50905 8.46929 4.47291 8.49099 4.44571 8.56143C4.19968 9.1988 3.73941 9.58383 3.05908 9.65664C2.35591 9.73188 1.79902 9.44982 1.43814 8.84313C1.11306 8.29658 1.11315 7.72058 1.43357 7.16985C1.76041 6.60807 2.26655 6.32601 2.91901 6.33776C3.61739 6.35035 4.20848 6.78249 4.44267 7.43628C4.46895 7.50971 4.50394 7.53753 4.58384 7.53586C4.84034 7.53049 5.09707 7.53379 5.3537 7.53375C5.3894 7.53379 5.42506 7.53379 5.4568 7.53379Z" fill="#6D80B2"/>
<path d="M7.53699 10.5484C7.8542 10.5484 8.15336 10.5484 8.4699 10.5484C8.4699 10.5746 8.4699 10.6134 8.4699 10.6521C8.46977 10.8832 8.47254 11.1143 8.46775 11.3454C8.46634 11.4134 8.49266 11.4417 8.55196 11.4642C9.13456 11.6844 9.499 12.0963 9.63616 12.7063C9.82642 13.5523 9.26239 14.4513 8.41263 14.6561C7.23775 14.9391 6.17352 13.9795 6.35308 12.7795C6.44856 12.1412 6.82797 11.7053 7.43016 11.4706C7.50297 11.4423 7.5344 11.4116 7.53259 11.3306C7.52762 11.107 7.53136 10.8831 7.53228 10.6594C7.5325 10.62 7.53558 10.5807 7.53699 10.5484Z" fill="#6D80B2"/>
<path d="M8.01032 9.62905C7.10993 9.63222 6.37789 8.90513 6.37635 8.00614C6.3748 7.10714 7.10426 6.37649 8.00362 6.37627C8.90577 6.37605 9.6313 7.1023 9.63051 8.00468C9.62967 8.90122 8.90687 9.62588 8.01032 9.62905Z" fill="#6D80B2"/>
</g>
<defs>
<clipPath id="clip0_68_4302">
<rect width="16" height="15.9999" fill="white"/>
</clipPath>
</defs>
</svg>
