<svg xmlns="http://www.w3.org/2000/svg" xmlns:xlink="http://www.w3.org/1999/xlink" viewBox="0,0,256,256" width="16px" height="16px" fill-rule="nonzero"><g transform="translate(-42.24,-42.24) scale(1.33,1.33)"><g fill="#6d80b2" fill-rule="nonzero" stroke-width="1" stroke-linecap="butt" stroke-linejoin="miter" stroke-miterlimit="10" stroke-dasharray="" stroke-dashoffset="0" style="mix-blend-mode: normal"><g transform="scale(4,4)"><path d="M28,9c-11.028,0 -20,8.972 -20,20c0,8.34657 5.14344,15.50729 12.42383,18.5l-0.02539,0.01953c3.821,4.756 9.50756,7.48438 15.60156,7.48438c11.028,0 20,-8.972 20,-20c0,-8.16494 -4.86896,-15.40913 -12.41211,-18.50391c-3.66867,-4.56573 -9.28865,-7.5 -15.58789,-7.5zM28,13c8.822,0 16,7.178 16,16c0,8.822 -7.178,16 -16,16c-8.822,0 -16,-7.178 -16,-16c0,-8.822 7.178,-16 16,-16zM27.93555,18.6875c-0.352,0 -0.58594,0.22237 -0.58594,0.60938v1.46484c-3.269,0.164 -5.61328,1.99241 -5.61328,4.81641c0,2.532 1.67609,3.90275 4.74609,4.59375l0.86719,0.19922v4.26563c-1.477,-0.129 -2.21484,-0.79694 -2.58984,-1.71094c-0.328,-0.68 -0.81987,-1.05469 -1.54687,-1.05469c-0.961,0 -1.53516,0.57397 -1.53516,1.41797c0,0.222 0.04662,0.46828 0.14063,0.73828c0.574,1.711 2.51925,3.10509 5.53125,3.24609v1.42969c0,0.387 0.23394,0.60742 0.58594,0.60742c0.352,0 0.58594,-0.22237 0.58594,-0.60937v-1.42969c3.375,-0.199 5.80078,-1.99203 5.80078,-4.95703c0,-2.566 -1.67572,-3.85503 -4.88672,-4.58203l-0.91406,-0.19922v-4.125c1.125,0.153 1.86331,0.72845 2.32031,1.68945c0.375,0.68 0.87847,1.01953 1.60547,1.01953c0.891,0 1.47656,-0.50434 1.47656,-1.27734c0,-0.246 -0.04719,-0.48084 -0.11719,-0.71484c-0.562,-1.804 -2.49616,-3.17528 -5.28516,-3.36328v-1.46484c0,-0.386 -0.23394,-0.60937 -0.58594,-0.60937zM27.34961,23.39844v3.86719c-1.641,-0.422 -2.33203,-1.04319 -2.33203,-1.99219c0,-0.949 0.79703,-1.734 2.33203,-1.875zM47.24219,23.61133c2.98939,2.94252 4.75586,6.99908 4.75586,11.39258c0,8.822 -7.178,16 -16,16c-2.75361,0 -5.3911,-0.71772 -7.72656,-2.00977c10.90279,-0.14648 19.72852,-9.0572 19.72852,-19.99414c0,-1.86891 -0.27612,-3.67152 -0.75781,-5.38867zM28.52148,30.64063c1.875,0.468 2.53225,0.99606 2.53125,2.03906c0,1.078 -0.84325,1.82803 -2.53125,1.95703z"></path></g></g></g></svg>
