<svg width="16" height="18" viewBox="0 0 16 18" fill="none" xmlns="http://www.w3.org/2000/svg">
<path d="M11.5 9C11.5 11.0392 9.933 12.6923 8 12.6923C6.067 12.6923 4.5 11.0392 4.5 9C4.5 6.96079 6.067 5.30769 8 5.30769C9.933 5.30769 11.5 6.96079 11.5 9Z" stroke="#6D80B3" stroke-width="2" stroke-linecap="round" stroke-linejoin="round"/>
<path d="M6.93862 1.28891C7.59701 0.903698 8.40299 0.903697 9.06138 1.28891L13.9386 4.19562C14.591 4.59159 14.994 5.31211 15 6.09328V11.9067C14.994 12.6879 14.591 13.4084 13.9386 13.8044L9.06138 16.7111C8.40299 17.0963 7.59701 17.0963 6.93862 16.7111L2.06137 13.8044C1.40901 13.4084 1.00602 12.6879 1 11.9067L1 6.09328C1.00602 5.31211 1.40901 4.59159 2.06138 4.19562L6.93862 1.28891Z" stroke="#6D80B3" stroke-width="2" stroke-linecap="round" stroke-linejoin="round"/>
</svg>
