<svg width="15" height="21" viewBox="0 0 15 21" fill="none" xmlns="http://www.w3.org/2000/svg">
<path d="M13.4964 9.15509C13.2858 9.36518 13.1099 9.58137 12.9913 9.89853C12.8726 10.2157 12.8141 10.5605 12.7295 11.1063C12.6087 11.8832 12.3723 12.1888 12.1856 12.3813C11.8038 12.7749 11.262 12.7527 10.6016 12.6222C10.1864 12.5402 10.0785 12.6391 9.58502 13.0654L6.9834 15.642L6.9823 19.5537C6.9823 19.6241 7.0675 19.6594 7.11733 19.6096L14.8017 11.9373C14.9053 11.8337 14.9639 11.6934 14.9642 11.5468L14.9739 7.66992L13.4967 9.15509H13.4964Z" fill="#D7E2F7"/>
<path d="M10.396 11.6026C10.8967 11.6171 11.2457 11.9791 11.6578 11.7197C12.0702 11.46 12.0585 11.1705 12.1385 10.6923C12.2186 10.214 12.3773 9.65744 12.5189 9.32157C12.6607 8.98542 12.9776 8.55592 13.3001 8.24274L14.961 6.51454L14.9718 4.77343C14.9724 4.66665 14.8434 4.61287 14.768 4.68827L7.21459 12.2417C7.06619 12.3901 6.98291 12.5913 6.98291 12.8008V14.5151L9.53416 11.954C9.53416 11.954 9.89484 11.5884 10.3955 11.6026H10.3958H10.396Z" fill="#D7E2F7"/>
<path d="M14.9737 3.34605L6.98291 11.3584V9.64768C6.98291 9.4378 7.06619 9.23662 7.21459 9.08849L14.7699 1.53297C14.845 1.45783 14.9737 1.51108 14.9737 1.61733V3.34578V3.34605Z" fill="#D7E2F7"/>
<path d="M14.3591 0.301472L0.82995 3.24901C0.345637 3.35447 0 3.78342 0 4.27933V14.1581C0 14.305 0.0582654 14.4457 0.162141 14.5496L5.85474 20.2422C5.97101 20.3584 6.1698 20.2762 6.1698 20.1117L6.17059 9.52477C6.17059 9.17547 6.30927 8.84035 6.5563 8.59331L14.5289 0.612044C14.6592 0.481805 14.5389 0.262189 14.3591 0.301208V0.301472Z" fill="#D7E2F7"/>
</svg>
