<svg width="18" height="21" viewBox="0 0 18 21" fill="none" xmlns="http://www.w3.org/2000/svg">
<path d="M4.48926 12.3582C4.78359 12.3582 5.03589 12.5703 5.08691 12.8601L6.26758 19.5857C6.33285 19.9568 6.04669 20.2966 5.66992 20.2966H4.01758C3.74316 20.2965 3.50237 20.112 3.43164 19.8464L1.63672 13.1208C1.53457 12.7359 1.82452 12.3586 2.22266 12.3582H4.48926ZM10.6133 12.3582C10.99 12.3583 11.275 12.6989 11.21 13.0701L10.0293 19.7947C9.97836 20.0849 9.72685 20.2965 9.43262 20.2966H7.62109C7.32687 20.2964 7.07437 20.0845 7.02344 19.7947L5.84277 13.0701C5.77742 12.6992 6.063 12.3586 6.43945 12.3582H10.6133ZM14.8301 12.3582C15.2284 12.3582 15.5187 12.7369 15.416 13.1218L13.6221 19.8464C13.5513 20.1117 13.3111 20.2966 13.0361 20.2966H11.3828C11.0062 20.2964 10.7202 19.9567 10.7852 19.5857L11.9668 12.8601C12.0178 12.5701 12.2694 12.3584 12.5635 12.3582H14.8301ZM16.2441 8.25366C16.6908 8.25366 17.0536 8.61567 17.0537 9.06226V10.6599C17.0536 11.1065 16.6908 11.4685 16.2441 11.4685H0.808594C0.362052 11.4684 9.09465e-05 11.1065 0 10.6599V9.06226C9.36834e-05 8.61572 0.362053 8.25375 0.808594 8.25366H16.2441ZM14.8623 4.31128C14.975 4.45229 15.0409 4.6291 15.041 4.81616V6.71753C15.0408 7.16423 14.6782 7.52612 14.2314 7.52612H2.82129C2.37455 7.52612 2.01286 7.16423 2.0127 6.71753V5.11987C2.01271 4.67304 2.37446 4.31128 2.82129 4.31128H7.70703L6.12695 3.54077C5.72575 3.34502 5.55951 2.86109 5.75488 2.45972L6.80957 0.296631L14.5859 4.0896H14.5869C14.696 4.14297 14.7901 4.21956 14.8633 4.31128H14.8623Z" fill="#91B0FF"/>
</svg>
