<svg width="20" height="21" viewBox="0 0 20 21" fill="none" xmlns="http://www.w3.org/2000/svg">
<path d="M13.5 10.2966C13.5 12.3358 11.933 13.9889 10 13.9889C8.067 13.9889 6.5 12.3358 6.5 10.2966C6.5 8.25743 8.067 6.60432 10 6.60432C11.933 6.60432 13.5 8.25743 13.5 10.2966Z" stroke="#91B0FF" stroke-width="2" stroke-linecap="round" stroke-linejoin="round"/>
<path d="M8.93862 2.58554C9.59701 2.20033 10.403 2.20033 11.0614 2.58554L15.9386 5.49225C16.591 5.88822 16.994 6.60874 17 7.38991V13.2033C16.994 13.9845 16.591 14.705 15.9386 15.101L11.0614 18.0077C10.403 18.3929 9.59701 18.3929 8.93862 18.0077L4.06137 15.101C3.40901 14.705 3.00602 13.9845 3 13.2033L3 7.38991C3.00602 6.60874 3.40901 5.88822 4.06138 5.49225L8.93862 2.58554Z" stroke="#91B0FF" stroke-width="2" stroke-linecap="round" stroke-linejoin="round"/>
</svg>
