<svg width="25" height="25" viewBox="0 0 25 25" fill="none" xmlns="http://www.w3.org/2000/svg">
<path d="M0.374418 9.47854C2.04349 2.78081 8.82698 -1.29555 15.5229 0.374052C22.2205 2.04376 26.2961 8.8288 24.6264 15.5264C22.9566 22.2235 16.1729 26.299 9.475 24.6289C2.77996 22.9591 -1.29605 16.1752 0.374418 9.47854ZM11.4252 6.6094C11.1269 6.54146 10.8335 6.47403 10.5492 6.40335L10.5502 6.39651L8.6586 5.92386L8.29434 7.3887C8.31578 7.39362 9.30798 7.6217 9.29043 7.63675C9.84567 7.7755 9.9459 8.14322 9.9291 8.4346L9.28946 11.001C9.32774 11.0108 9.37735 11.025 9.43203 11.0469C9.38633 11.0356 9.33692 11.0229 9.28653 11.0108L8.39004 14.6075C8.32202 14.7762 8.14934 15.0287 7.76114 14.9326C7.77481 14.9526 6.76407 14.6846 6.76407 14.6846L6.0834 16.2539L7.86856 16.6992C8.20049 16.7824 8.52587 16.8692 8.8461 16.9512L8.27871 19.2305L9.64883 19.5723L10.2113 17.3174C10.5855 17.419 10.9487 17.5133 11.3041 17.6016L10.7436 19.8457L12.1156 20.1875L12.683 17.9131C15.0218 18.3557 16.7805 18.1768 17.5209 16.0616C18.1174 14.3583 17.4917 13.3751 16.2611 12.7344C17.1571 12.5277 17.832 11.9383 18.0121 10.7207C18.2608 9.05748 16.9947 8.16296 15.2631 7.56643L15.8246 5.31351L14.4525 4.97171L13.9057 7.16507C13.5452 7.07526 13.1749 6.99121 12.807 6.90726L13.3578 4.69827L11.9867 4.35647L11.4252 6.6094ZM11.4096 12.6475C12.3393 12.8795 15.321 13.3391 14.8783 15.1153C14.4544 16.8186 11.5864 15.8979 10.6566 15.667L11.4096 12.6475ZM12.4369 8.52737C13.2112 8.72036 15.7049 9.08013 15.3022 10.6963C14.9153 12.2456 12.5286 11.4586 11.7543 11.2657L12.4369 8.52737Z" fill="#FFC414"/>
</svg>
