<svg width="250" height="250" viewBox="0 0 250 250" fill="none" xmlns="http://www.w3.org/2000/svg">
<path d="M125.001 0C194.037 0 249.999 55.9635 249.999 125.001C249.999 194.032 194.036 250.001 125.001 250.001C55.9674 250.001 0 194.032 0 125.001C0.000129248 55.9645 55.9674 0.000120924 125.001 0ZM84.8945 125.31L68.8184 131.183L63.5059 151.188L79.5703 145.319L68.2217 187.959H179.353L186.478 161.422H117.102L125.87 128.404L146.631 120.819L151.794 101.415L151.618 100.934L131.183 108.399L145.906 52.959H104.149L84.8945 125.31Z" fill="#4EBEFF"/>
<path d="M125.001 0C194.037 0 249.999 55.9635 249.999 125.001C249.999 194.032 194.036 250.001 125.001 250.001C55.9674 250.001 0 194.032 0 125.001C0.000129248 55.9645 55.9674 0.000120924 125.001 0ZM84.8945 125.31L68.8184 131.183L63.5059 151.188L79.5703 145.319L68.2217 187.959H179.353L186.478 161.422H117.102L125.87 128.404L146.631 120.819L151.794 101.415L151.618 100.934L131.183 108.399L145.906 52.959H104.149L84.8945 125.31Z" fill="#61C5FF"/>
<path d="M125.001 0C194.037 0 249.999 55.9635 249.999 125.001C249.999 194.032 194.036 250.001 125.001 250.001C55.9674 250.001 0 194.032 0 125.001C0.000129248 55.9645 55.9674 0.000120924 125.001 0ZM84.8945 125.31L68.8184 131.183L63.5059 151.188L79.5703 145.319L68.2217 187.959H179.353L186.478 161.422H117.102L125.87 128.404L146.631 120.819L151.794 101.415L151.618 100.934L131.183 108.399L145.906 52.959H104.149L84.8945 125.31Z" fill="#146CFA"/>
</svg>
