<svg width="25" height="25" viewBox="0 0 25 25" fill="none" xmlns="http://www.w3.org/2000/svg">
<path d="M17.9141 18.9951H23.1807C20.9868 22.595 17.0235 24.9999 12.5 25C7.97638 25 4.01357 22.595 1.81934 18.9951H7.08594V12.3779L12.5 17.792L17.9141 12.3779V18.9951ZM12.5 0C19.4022 9.12598e-05 24.9997 5.59683 25 12.499C25 13.879 24.7765 15.2068 24.3633 16.4482H20.625V5.93066L12.5 14.0557L4.375 5.93066V16.4482H0.636719C0.223479 15.2068 0 13.879 0 12.499C0.000253081 5.59678 5.59803 0 12.5 0Z" fill="#4C4C4C"/>
<path d="M17.9141 18.9951H23.1807C20.9868 22.595 17.0235 24.9999 12.5 25C7.97638 25 4.01357 22.595 1.81934 18.9951H7.08594V12.3779L12.5 17.792L17.9141 12.3779V18.9951ZM12.5 0C19.4022 9.12598e-05 24.9997 5.59683 25 12.499C25 13.879 24.7765 15.2068 24.3633 16.4482H20.625V5.93066L12.5 14.0557L4.375 5.93066V16.4482H0.636719C0.223479 15.2068 0 13.879 0 12.499C0.000253081 5.59678 5.59803 0 12.5 0Z" fill="#FF5900"/>
</svg>
