<svg width="15" height="20" viewBox="0 0 15 20" fill="none" xmlns="http://www.w3.org/2000/svg">
<path d="M13.4964 8.85858C13.2858 9.06867 13.1099 9.28486 12.9913 9.60202C12.8726 9.91917 12.8141 10.264 12.7295 10.8098C12.6087 11.5867 12.3723 11.8923 12.1856 12.0848C11.8038 12.4784 11.262 12.4562 10.6016 12.3257C10.1864 12.2437 10.0785 12.3426 9.58502 12.7689L6.9834 15.3455L6.9823 19.2572C6.9823 19.3276 7.0675 19.3629 7.11733 19.3131L14.8017 11.6408C14.9053 11.5372 14.9639 11.3969 14.9642 11.2503L14.9739 7.37341L13.4967 8.85858H13.4964Z" fill="#91B0FF"/>
<path d="M10.396 11.3059C10.8967 11.3204 11.2457 11.6824 11.6578 11.423C12.0702 11.1633 12.0585 10.8738 12.1385 10.3956C12.2186 9.91733 12.3773 9.36075 12.5189 9.02487C12.6607 8.68873 12.9776 8.25923 13.3001 7.94605L14.961 6.21785L14.9718 4.47674C14.9724 4.36996 14.8434 4.31618 14.768 4.39158L7.21459 11.945C7.06619 12.0934 6.98291 12.2946 6.98291 12.5042V14.2184L9.53416 11.6573C9.53416 11.6573 9.89484 11.2917 10.3955 11.3059H10.3958H10.396Z" fill="#91B0FF"/>
<path d="M14.9737 3.04941L6.98291 11.0618V9.35105C6.98291 9.14117 7.06619 8.93999 7.21459 8.79186L14.7699 1.23634C14.845 1.1612 14.9737 1.21445 14.9737 1.3207V3.04915V3.04941Z" fill="#91B0FF"/>
<path d="M14.3591 0.00484096L0.82995 2.95238C0.345637 3.05784 0 3.48679 0 3.9827V13.8614C0 14.0083 0.0582654 14.1491 0.162141 14.253L5.85474 19.9456C5.97101 20.0618 6.1698 19.9796 6.1698 19.8151L6.17059 9.22814C6.17059 8.87883 6.30927 8.54372 6.5563 8.29668L14.5289 0.315414C14.6592 0.185174 14.5389 -0.0344422 14.3591 0.00457706V0.00484096Z" fill="#91B0FF"/>
</svg>
