<svg width="123" height="35" viewBox="0 0 123 35" fill="none" xmlns="http://www.w3.org/2000/svg">
<path d="M8.38721 21.1074C8.90189 21.1077 9.3427 21.4785 9.43213 21.9854L11.4985 33.7549C11.6131 34.4043 11.1129 34.9997 10.4536 35H7.56104C7.08056 35 6.65952 34.6768 6.53564 34.2119L3.39502 22.4424C3.21594 21.7684 3.7231 21.1076 4.42041 21.1074H8.38721ZM19.104 21.1084C19.7628 21.109 20.2623 21.7035 20.1489 22.3525L18.0825 34.1221C17.9934 34.6298 17.5523 34.9995 17.0376 35H13.8667C13.3516 35 12.911 34.6294 12.8218 34.1221L10.7554 22.3525C10.6411 21.7031 11.1409 21.1084 11.8003 21.1084H19.104ZM26.4839 21.1084C27.1803 21.109 27.6885 21.7702 27.5093 22.4434L24.3687 34.2129C24.2447 34.6767 23.8241 34.9997 23.3433 35H20.4507C19.7913 35 19.2921 34.4054 19.4058 33.7559L21.4722 21.9863C21.5615 21.4785 22.0021 21.1084 22.5171 21.1084H26.4839ZM72.6362 15.4785C73.6562 15.4785 74.5623 15.7382 75.354 16.2559C76.1455 16.7735 76.7776 17.489 77.2495 18.4023C77.7214 19.3158 77.9575 20.3591 77.9575 21.5312C77.9575 22.7033 77.7132 23.7458 77.2261 24.6592C76.7542 25.5573 76.1076 26.2656 75.2856 26.7832C74.4787 27.3009 73.5645 27.5596 72.5444 27.5596C71.6007 27.5595 70.7788 27.3543 70.0786 26.9434C69.5242 26.5984 69.076 26.1574 68.731 25.623V31.625H66.4468V15.8447H68.7085V17.7578C68.7846 17.6177 68.8679 17.4819 68.9595 17.3516C69.3705 16.7731 69.888 16.3164 70.5122 15.9814C71.1517 15.6465 71.8598 15.4785 72.6362 15.4785ZM46.7729 10.5C48.0365 10.5 49.186 10.7661 50.2212 11.2988C51.2717 11.8317 52.155 12.5934 52.8706 13.583L51.272 15.1816C50.7392 14.3444 50.0844 13.7052 49.3081 13.2637C48.547 12.8222 47.6943 12.6007 46.7505 12.6006C45.6847 12.6006 44.7324 12.883 43.895 13.4463C43.0731 13.9944 42.4265 14.748 41.9546 15.707C41.4826 16.6662 41.2466 17.7774 41.2466 19.041C41.2466 20.2742 41.4826 21.3781 41.9546 22.3525C42.4265 23.3116 43.0729 24.0734 43.895 24.6367C44.7324 25.1848 45.6847 25.459 46.7505 25.459C47.6943 25.4589 48.5542 25.2374 49.3306 24.7959C50.107 24.3392 50.7543 23.7001 51.272 22.8779L52.8706 24.4766C52.1855 25.4357 51.2867 26.1892 50.1753 26.7373C49.0792 27.2853 47.9297 27.5596 46.7271 27.5596C45.5853 27.5595 44.5275 27.3461 43.5532 26.9199C42.594 26.4936 41.7561 25.8999 41.0405 25.1387C40.325 24.3622 39.7694 23.4561 39.3735 22.4209C38.9777 21.3857 38.7798 20.2589 38.7798 19.041C38.7798 17.808 38.9778 16.6739 39.3735 15.6387C39.7846 14.6034 40.3484 13.7046 41.064 12.9434C41.7794 12.1672 42.624 11.5659 43.5981 11.1396C44.5725 10.7133 45.6311 10.5 46.7729 10.5ZM56.4497 22.627C56.4497 23.6013 56.6621 24.3476 57.0884 24.8652C57.5299 25.3677 58.1318 25.6191 58.8931 25.6191C59.4563 25.6191 59.9666 25.482 60.4233 25.208C60.8801 24.9187 61.2605 24.5301 61.5649 24.043C61.7279 23.7946 61.8569 23.5262 61.9526 23.2383V15.8447H64.2368V27.1943H61.9761V25.5332C61.6362 26.1277 61.1799 26.6054 60.606 26.9658C59.9513 27.3616 59.1823 27.5595 58.2993 27.5596C57.0509 27.5596 56.0459 27.1565 55.2847 26.3496C54.5387 25.5427 54.1655 24.3779 54.1655 22.8555V15.8447H56.4497V22.627ZM84.6909 15.4785C86.6396 15.4786 88.1776 16.2176 89.3042 17.6943L87.7739 19.1553C87.439 18.6073 87.0122 18.1886 86.4946 17.8994C85.977 17.595 85.3904 17.4434 84.7358 17.4434C83.7161 17.4435 82.8787 17.8158 82.2241 18.5615C81.5847 19.2923 81.2651 20.2828 81.2651 21.5312C81.2652 22.749 81.592 23.7388 82.2466 24.5C82.9012 25.246 83.7465 25.6191 84.7817 25.6191C85.4212 25.6191 85.9922 25.4738 86.4946 25.1846C86.997 24.8801 87.431 24.4461 87.7964 23.8828L89.2808 25.3447C88.7479 26.045 88.086 26.5934 87.2944 26.9893C86.5027 27.3699 85.6267 27.5596 84.6675 27.5596C83.541 27.5595 82.5358 27.3008 81.6528 26.7832C80.7852 26.2656 80.1005 25.5573 79.5981 24.6592C79.1111 23.7458 78.8668 22.7033 78.8667 21.5312C78.8667 20.3438 79.1183 19.3006 79.6206 18.4023C80.123 17.4889 80.8085 16.7735 81.6763 16.2559C82.5593 15.7382 83.5643 15.4785 84.6909 15.4785ZM94.7163 15.4785C95.7211 15.4785 96.589 15.6692 97.3198 16.0498C98.0657 16.4304 98.6441 16.9708 99.0552 17.6709C99.4662 18.356 99.6724 19.1713 99.6724 20.1152V27.1943H97.5942V25.7061C97.2286 26.2204 96.7656 26.6413 96.2007 26.9658C95.5004 27.3616 94.6859 27.5595 93.7573 27.5596C92.9506 27.5596 92.2349 27.4078 91.6108 27.1035C91.0019 26.7838 90.5216 26.3498 90.1714 25.8018C89.8212 25.2537 89.646 24.6291 89.646 23.9287C89.646 22.7565 90.0955 21.8431 90.9937 21.1885C91.9071 20.5186 93.1328 20.1836 94.6704 20.1836H97.5249C97.5249 19.3007 97.2588 18.6079 96.7261 18.1055C96.1932 17.5878 95.4623 17.3291 94.5337 17.3291C93.3157 17.3291 92.2499 17.8312 91.3364 18.8359L90.0122 17.4199C91.3367 16.126 92.9047 15.4785 94.7163 15.4785ZM117.195 15.4785C118.23 15.4785 119.143 15.7382 119.935 16.2559C120.727 16.7583 121.343 17.4583 121.785 18.3564C122.241 19.2547 122.47 20.2824 122.47 21.4395V22.2617H113.976C114.039 22.7825 114.167 23.2548 114.363 23.6777C114.667 24.2867 115.094 24.7743 115.642 25.1396C116.205 25.4897 116.876 25.6641 117.652 25.6641C118.337 25.664 118.953 25.5124 119.501 25.208C120.05 24.9035 120.537 24.4541 120.963 23.8604L122.31 25.2988C121.716 26.0601 121.008 26.6311 120.186 27.0117C119.379 27.377 118.497 27.5595 117.538 27.5596C116.35 27.5596 115.307 27.3009 114.409 26.7832C113.526 26.2656 112.833 25.5502 112.331 24.6367C111.828 23.7233 111.577 22.6882 111.577 21.5312C111.577 20.3742 111.82 19.3383 112.307 18.4248C112.809 17.5114 113.48 16.796 114.317 16.2783C115.169 15.7454 116.129 15.4785 117.195 15.4785ZM104.006 20.9326L109.031 15.8447H111.885L106.354 21.3096L112.525 27.1943H109.464L104.006 21.8799V27.1943H101.723V10.752H104.006V20.9326ZM94.8765 21.8047C93.963 21.8047 93.2467 21.9871 92.729 22.3525C92.2266 22.7027 91.9761 23.1985 91.9761 23.8379C91.9762 24.4162 92.1741 24.8876 92.5698 25.2529C92.9808 25.603 93.5285 25.7782 94.2134 25.7783C94.868 25.7783 95.4546 25.634 95.9722 25.3447C96.4897 25.0555 96.9083 24.6596 97.228 24.1572C97.3458 23.9721 97.4443 23.7761 97.5249 23.5703V21.8047H94.8765ZM72.2026 17.4199C71.5327 17.4199 70.9381 17.6024 70.4204 17.9678C69.9029 18.3331 69.4925 18.8436 69.188 19.498C68.8835 20.1375 68.731 20.8838 68.731 21.7363V23.1836C68.8327 23.4922 68.9689 23.779 69.1421 24.043C69.4618 24.5301 69.8731 24.9187 70.3755 25.208C70.893 25.4819 71.4562 25.6191 72.0649 25.6191C72.7652 25.6191 73.3745 25.4439 73.8921 25.0938C74.425 24.7436 74.8362 24.2633 75.1255 23.6543C75.4298 23.0303 75.5825 22.3226 75.5825 21.5312C75.5825 20.7244 75.4372 20.0162 75.1479 19.4072C74.8739 18.7831 74.4862 18.2955 73.9839 17.9453C73.4816 17.5952 72.8876 17.42 72.2026 17.4199ZM117.172 17.374C116.533 17.374 115.969 17.542 115.482 17.877C114.995 18.2119 114.614 18.6914 114.34 19.3154C114.167 19.7098 114.049 20.1438 113.985 20.6172H120.17C120.08 19.7372 119.821 19.0141 119.387 18.4482C118.854 17.7328 118.116 17.3741 117.172 17.374ZM28.9575 13.9248C29.7389 13.925 30.3724 14.5584 30.3726 15.3398V18.1357C30.3724 18.9172 29.7389 19.5506 28.9575 19.5508H1.94482C1.16342 19.5506 0.529945 18.9172 0.529785 18.1357V15.3398C0.529949 14.5584 1.16342 13.925 1.94482 13.9248H28.9575ZM26.0562 6.6377C26.2471 6.7311 26.4115 6.86483 26.5396 7.02539L26.6099 7.12109C26.7638 7.35027 26.8511 7.62363 26.8511 7.91016V11.2363C26.8509 12.0179 26.2176 12.651 25.436 12.6514H5.46631C4.68457 12.6512 4.05143 12.0181 4.05127 11.2363V8.44043C4.05143 7.65869 4.68457 7.02555 5.46631 7.02539H14.0181L11.2524 5.67676C10.55 5.33412 10.2586 4.48677 10.6011 3.78418L12.4468 0L26.0562 6.6377Z" fill="url(#paint0_linear_483_1618)"/>
<defs>
<linearGradient id="paint0_linear_483_1618" x1="0.529785" y1="17.5" x2="122.47" y2="17.5" gradientUnits="userSpaceOnUse">
<stop stop-color="#91B0FF" stop-opacity="0.5"/>
<stop offset="1" stop-color="#91B0FF" stop-opacity="0.4"/>
</linearGradient>
</defs>
</svg>
