<svg width="125" height="35" viewBox="0 0 125 35" fill="none" xmlns="http://www.w3.org/2000/svg">
<path d="M72.1064 15.4785C73.1265 15.4785 74.0326 15.7382 74.8242 16.2559C75.6157 16.7735 76.2478 17.489 76.7197 18.4023C77.1916 19.3158 77.4277 20.3591 77.4277 21.5312C77.4277 22.7033 77.1834 23.7458 76.6963 24.6592C76.2244 25.5573 75.5778 26.2656 74.7559 26.7832C73.9489 27.3009 73.0347 27.5596 72.0146 27.5596C71.0709 27.5595 70.249 27.3543 69.5488 26.9434C68.9944 26.5984 68.5462 26.1574 68.2012 25.623V31.625H65.917V15.8447H68.1787V17.7578C68.2548 17.6177 68.3381 17.4819 68.4297 17.3516C68.8407 16.7731 69.3583 16.3164 69.9824 15.9814C70.6219 15.6465 71.33 15.4785 72.1064 15.4785ZM46.2432 10.5C47.5067 10.5 48.6562 10.7661 49.6914 11.2988C50.7419 11.8317 51.6252 12.5934 52.3408 13.583L50.7422 15.1816C50.2094 14.3444 49.5547 13.7052 48.7783 13.2637C48.0172 12.8222 47.1645 12.6007 46.2207 12.6006C45.155 12.6006 44.2026 12.883 43.3652 13.4463C42.5433 13.9944 41.8967 14.748 41.4248 15.707C40.9529 16.6662 40.7168 17.7774 40.7168 19.041C40.7168 20.2742 40.9528 21.3781 41.4248 22.3525C41.8968 23.3116 42.5432 24.0734 43.3652 24.6367C44.2026 25.1848 45.155 25.459 46.2207 25.459C47.1645 25.4589 48.0244 25.2374 48.8008 24.7959C49.5772 24.3392 50.2245 23.7001 50.7422 22.8779L52.3408 24.4766C51.6557 25.4357 50.7569 26.1892 49.6455 26.7373C48.5494 27.2853 47.3999 27.5596 46.1973 27.5596C45.0556 27.5595 43.9977 27.3461 43.0234 26.9199C42.0643 26.4936 41.2263 25.8999 40.5107 25.1387C39.7952 24.3622 39.2396 23.4561 38.8438 22.4209C38.448 21.3857 38.25 20.2589 38.25 19.041C38.25 17.808 38.448 16.6739 38.8438 15.6387C39.2548 14.6034 39.8186 13.7046 40.5342 12.9434C41.2496 12.1672 42.0943 11.5659 43.0684 11.1396C44.0428 10.7133 45.1013 10.5 46.2432 10.5ZM55.9199 22.627C55.9199 23.6013 56.1323 24.3476 56.5586 24.8652C57.0001 25.3677 57.602 25.6191 58.3633 25.6191C58.9265 25.6191 59.4369 25.482 59.8936 25.208C60.3503 24.9187 60.7307 24.5301 61.0352 24.043C61.1982 23.7946 61.3271 23.5262 61.4229 23.2383V15.8447H63.707V27.1943H61.4463V25.5332C61.1064 26.1277 60.6501 26.6054 60.0762 26.9658C59.4215 27.3616 58.6525 27.5595 57.7695 27.5596C56.5211 27.5596 55.5161 27.1565 54.7549 26.3496C54.0089 25.5427 53.6358 24.3779 53.6357 22.8555V15.8447H55.9199V22.627ZM84.1611 15.4785C86.1098 15.4786 87.6478 16.2176 88.7744 17.6943L87.2441 19.1553C86.9092 18.6073 86.4824 18.1886 85.9648 17.8994C85.4473 17.595 84.8606 17.4434 84.2061 17.4434C83.1863 17.4435 82.3489 17.8158 81.6943 18.5615C81.0549 19.2923 80.7354 20.2828 80.7354 21.5312C80.7354 22.749 81.0622 23.7388 81.7168 24.5C82.3714 25.246 83.2168 25.6191 84.252 25.6191C84.8914 25.6191 85.4624 25.4738 85.9648 25.1846C86.4673 24.8801 86.9012 24.4461 87.2666 23.8828L88.751 25.3447C88.2182 26.045 87.5562 26.5934 86.7646 26.9893C85.9729 27.3699 85.0969 27.5596 84.1377 27.5596C83.0112 27.5595 82.006 27.3008 81.123 26.7832C80.2554 26.2656 79.5707 25.5573 79.0684 24.6592C78.5813 23.7458 78.337 22.7033 78.3369 21.5312C78.3369 20.3438 78.5885 19.3006 79.0908 18.4023C79.5932 17.4889 80.2787 16.7735 81.1465 16.2559C82.0295 15.7382 83.0345 15.4785 84.1611 15.4785ZM94.1865 15.4785C95.1913 15.4785 96.0593 15.6692 96.79 16.0498C97.5359 16.4304 98.1143 16.9708 98.5254 17.6709C98.9365 18.356 99.1426 19.1713 99.1426 20.1152V27.1943H97.0645V25.7061C96.6988 26.2204 96.2358 26.6413 95.6709 26.9658C94.9706 27.3616 94.1562 27.5595 93.2275 27.5596C92.4208 27.5596 91.7052 27.4078 91.0811 27.1035C90.4721 26.7838 89.9918 26.3498 89.6416 25.8018C89.2914 25.2537 89.1162 24.6291 89.1162 23.9287C89.1162 22.7565 89.5657 21.8431 90.4639 21.1885C91.3773 20.5186 92.603 20.1836 94.1406 20.1836H96.9951C96.9951 19.3007 96.729 18.6079 96.1963 18.1055C95.6634 17.5878 94.9326 17.3291 94.0039 17.3291C92.786 17.3291 91.7201 17.8312 90.8066 18.8359L89.4824 17.4199C90.8069 16.126 92.3749 15.4785 94.1865 15.4785ZM116.665 15.4785C117.7 15.4785 118.614 15.7382 119.405 16.2559C120.197 16.7583 120.813 17.4583 121.255 18.3564C121.712 19.2547 121.94 20.2824 121.94 21.4395V22.2617H113.446C113.509 22.7825 113.637 23.2548 113.833 23.6777C114.138 24.2867 114.564 24.7743 115.112 25.1396C115.676 25.4897 116.346 25.6641 117.122 25.6641C117.807 25.664 118.424 25.5124 118.972 25.208C119.52 24.9035 120.007 24.4541 120.434 23.8604L121.78 25.2988C121.187 26.0601 120.478 26.6311 119.656 27.0117C118.849 27.377 117.967 27.5595 117.008 27.5596C115.82 27.5596 114.777 27.3009 113.879 26.7832C112.996 26.2656 112.303 25.5502 111.801 24.6367C111.298 23.7233 111.047 22.6882 111.047 21.5312C111.047 20.3742 111.29 19.3383 111.777 18.4248C112.28 17.5114 112.95 16.796 113.787 16.2783C114.64 15.7454 115.599 15.4785 116.665 15.4785ZM103.477 20.9326L108.501 15.8447H111.355L105.824 21.3096L111.995 27.1943H108.935L103.477 21.8799V27.1943H101.193V10.752H103.477V20.9326ZM94.3467 21.8047C93.4332 21.8047 92.7169 21.9871 92.1992 22.3525C91.6968 22.7027 91.4463 23.1985 91.4463 23.8379C91.4464 24.4162 91.6443 24.8876 92.04 25.2529C92.451 25.603 92.9987 25.7782 93.6836 25.7783C94.3382 25.7783 94.9248 25.634 95.4424 25.3447C95.96 25.0555 96.3785 24.6596 96.6982 24.1572C96.8161 23.9721 96.9145 23.7761 96.9951 23.5703V21.8047H94.3467ZM71.6729 17.4199C71.003 17.4199 70.4083 17.6024 69.8906 17.9678C69.3731 18.3331 68.9627 18.8436 68.6582 19.498C68.3537 20.1375 68.2012 20.8838 68.2012 21.7363V23.1836C68.3029 23.4922 68.4391 23.779 68.6123 24.043C68.932 24.5301 69.3433 24.9187 69.8457 25.208C70.3632 25.4819 70.9264 25.6191 71.5352 25.6191C72.2354 25.6191 72.8447 25.4439 73.3623 25.0938C73.8952 24.7436 74.3064 24.2633 74.5957 23.6543C74.9 23.0303 75.0527 22.3226 75.0527 21.5312C75.0527 20.7244 74.9074 20.0162 74.6182 19.4072C74.3442 18.7831 73.9564 18.2955 73.4541 17.9453C72.9518 17.5952 72.3578 17.42 71.6729 17.4199ZM116.643 17.374C116.003 17.374 115.439 17.542 114.952 17.877C114.465 18.2119 114.085 18.6914 113.811 19.3154C113.637 19.7098 113.519 20.1438 113.455 20.6172H119.641C119.55 19.7372 119.291 19.0141 118.857 18.4482C118.325 17.7328 117.586 17.3741 116.643 17.374Z" fill="#EFEFF8"/>
<path d="M7.85706 21.1074C8.3719 21.1075 8.81252 21.4784 8.90198 21.9854L10.9684 33.7549C11.083 34.4045 10.5829 34.9999 9.92346 35H7.03088C6.55038 35 6.12934 34.6769 6.00549 34.2119L2.86487 22.4424C2.68579 21.7684 3.19295 21.1076 3.89026 21.1074H7.85706ZM18.5739 21.1084C19.2328 21.1088 19.7322 21.7034 19.6188 22.3525L17.5524 34.1221C17.4632 34.6299 17.0223 34.9997 16.5074 35H13.3365C12.8214 35 12.3808 34.6294 12.2916 34.1221L10.2252 22.3525C10.1109 21.7031 10.6108 21.1084 11.2701 21.1084H18.5739ZM25.9537 21.1084C26.6503 21.1088 27.1585 21.77 26.9791 22.4434L23.8385 34.2129C23.7145 34.6769 23.2941 34.9999 22.8131 35H19.9205C19.2611 35 18.7619 34.4054 18.8756 33.7559L20.942 21.9863C21.0314 21.4784 21.4719 21.1084 21.9869 21.1084H25.9537ZM28.4274 13.9248C29.2089 13.9248 29.8422 14.5583 29.8424 15.3398V18.1357C29.8422 18.9173 29.2089 19.5508 28.4274 19.5508H1.41467C0.633266 19.5506 -0.000206749 18.9172 -0.000366211 18.1357V15.3398C-0.00020237 14.5584 0.633269 13.925 1.41467 13.9248H28.4274ZM26.0094 7.02539C26.2068 7.27237 26.3209 7.5825 26.3209 7.91016V11.2363C26.3208 12.018 25.6876 12.6512 24.9059 12.6514H4.93616C4.15442 12.6512 3.52128 12.0181 3.52112 11.2363V8.44043C3.52128 7.65869 4.15441 7.02555 4.93616 7.02539H13.4879L10.7223 5.67676C10.0199 5.33412 9.72847 4.48677 10.0709 3.78418L11.9166 0L25.526 6.6377C25.7171 6.73111 25.8813 6.86475 26.0094 7.02539Z" fill="#EFEFF8"/>
</svg>
