<svg width="19" height="19" viewBox="0 0 19 19" fill="none" xmlns="http://www.w3.org/2000/svg">
<g filter="url(#filter0_d_800_3801)">
<circle cx="9.5" cy="8.5" r="7.5" fill="url(#paint0_linear_800_3801)"/>
<circle cx="9.5" cy="8.5" r="7.5" fill="url(#paint1_linear_800_3801)"/>
<circle cx="9.5" cy="8.5" r="7.5" fill="url(#paint2_linear_800_3801)"/>
<circle cx="9.5" cy="8.5" r="7.75" stroke="url(#paint3_linear_800_3801)" stroke-width="0.5"/>
</g>
<g filter="url(#filter1_f_800_3801)">
<ellipse cx="9.5" cy="8.5" rx="7.5" ry="7.5" transform="rotate(90 9.5 8.5)" fill="url(#paint4_linear_800_3801)"/>
</g>
<g filter="url(#filter2_f_800_3801)">
<ellipse cx="7.5" cy="7.5" rx="7.5" ry="7.5" transform="matrix(4.37114e-08 1 1 -4.37114e-08 2 1)" fill="url(#paint5_linear_800_3801)"/>
</g>
<path d="M10.7959 6.94464C10.7959 7.25392 11.0466 7.50464 11.3559 7.50464H13.2906C13.5999 7.50464 13.8506 7.75536 13.8506 8.06464V9.23565C13.8506 9.54493 13.5999 9.79565 13.2906 9.79565H11.3559C11.0466 9.79565 10.7959 10.0464 10.7959 10.3557V12.2903C10.7959 12.5996 10.5452 12.8503 10.2359 12.8503H9.06488C8.7556 12.8503 8.50488 12.5996 8.50488 12.2903V10.3557C8.50488 10.0464 8.25416 9.79565 7.94488 9.79565H6.0102C5.70092 9.79565 5.4502 9.54493 5.4502 9.23565V8.06464C5.4502 7.75536 5.70092 7.50464 6.0102 7.50464H7.94488C8.25416 7.50464 8.50488 7.25392 8.50488 6.94464V5.00995C8.50488 4.70067 8.7556 4.44995 9.06488 4.44995H10.2359C10.5452 4.44995 10.7959 4.70067 10.7959 5.00995V6.94464Z" fill="url(#paint6_radial_800_3801)"/>
<path d="M10.7959 6.94464C10.7959 7.25392 11.0466 7.50464 11.3559 7.50464H13.2906C13.5999 7.50464 13.8506 7.75536 13.8506 8.06464V9.23565C13.8506 9.54493 13.5999 9.79565 13.2906 9.79565H11.3559C11.0466 9.79565 10.7959 10.0464 10.7959 10.3557V12.2903C10.7959 12.5996 10.5452 12.8503 10.2359 12.8503H9.06488C8.7556 12.8503 8.50488 12.5996 8.50488 12.2903V10.3557C8.50488 10.0464 8.25416 9.79565 7.94488 9.79565H6.0102C5.70092 9.79565 5.4502 9.54493 5.4502 9.23565V8.06464C5.4502 7.75536 5.70092 7.50464 6.0102 7.50464H7.94488C8.25416 7.50464 8.50488 7.25392 8.50488 6.94464V5.00995C8.50488 4.70067 8.7556 4.44995 9.06488 4.44995H10.2359C10.5452 4.44995 10.7959 4.70067 10.7959 5.00995V6.94464Z" fill="url(#paint7_radial_800_3801)"/>
<defs>
<filter id="filter0_d_800_3801" x="0.5" y="0.5" width="18" height="18" filterUnits="userSpaceOnUse" color-interpolation-filters="sRGB">
<feFlood flood-opacity="0" result="BackgroundImageFix"/>
<feColorMatrix in="SourceAlpha" type="matrix" values="0 0 0 0 0 0 0 0 0 0 0 0 0 0 0 0 0 0 127 0" result="hardAlpha"/>
<feOffset dy="1"/>
<feGaussianBlur stdDeviation="0.5"/>
<feComposite in2="hardAlpha" operator="out"/>
<feColorMatrix type="matrix" values="0 0 0 0 0.0549649 0 0 0 0 0.0925929 0 0 0 0 0.197115 0 0 0 1 0"/>
<feBlend mode="normal" in2="BackgroundImageFix" result="effect1_dropShadow_800_3801"/>
<feBlend mode="normal" in="SourceGraphic" in2="effect1_dropShadow_800_3801" result="shape"/>
</filter>
<filter id="filter1_f_800_3801" x="1.16" y="0.16" width="16.68" height="16.68" filterUnits="userSpaceOnUse" color-interpolation-filters="sRGB">
<feFlood flood-opacity="0" result="BackgroundImageFix"/>
<feBlend mode="normal" in="SourceGraphic" in2="BackgroundImageFix" result="shape"/>
<feGaussianBlur stdDeviation="0.42" result="effect1_foregroundBlur_800_3801"/>
</filter>
<filter id="filter2_f_800_3801" x="1.16" y="0.16" width="16.68" height="16.68" filterUnits="userSpaceOnUse" color-interpolation-filters="sRGB">
<feFlood flood-opacity="0" result="BackgroundImageFix"/>
<feBlend mode="normal" in="SourceGraphic" in2="BackgroundImageFix" result="shape"/>
<feGaussianBlur stdDeviation="0.42" result="effect1_foregroundBlur_800_3801"/>
</filter>
<linearGradient id="paint0_linear_800_3801" x1="9.5" y1="1" x2="9.5" y2="16" gradientUnits="userSpaceOnUse">
<stop stop-color="#546AA2"/>
<stop offset="1" stop-color="#223055"/>
</linearGradient>
<linearGradient id="paint1_linear_800_3801" x1="9.5" y1="1" x2="9.5" y2="16" gradientUnits="userSpaceOnUse">
<stop stop-color="#677FBD"/>
<stop offset="0.153846" stop-color="#495E94"/>
<stop offset="0.528846" stop-color="#22335E"/>
<stop offset="1" stop-color="#1A243F"/>
</linearGradient>
<linearGradient id="paint2_linear_800_3801" x1="4.5" y1="2.5" x2="9.5" y2="16" gradientUnits="userSpaceOnUse">
<stop stop-color="#677FBD"/>
<stop offset="0.153846" stop-color="#495E94"/>
<stop offset="0.528846" stop-color="#22335E"/>
<stop offset="1" stop-color="#1A243F"/>
</linearGradient>
<linearGradient id="paint3_linear_800_3801" x1="9.5" y1="1" x2="9.5" y2="16" gradientUnits="userSpaceOnUse">
<stop stop-color="#0B152F"/>
<stop offset="1" stop-color="#0B152F"/>
</linearGradient>
<linearGradient id="paint4_linear_800_3801" x1="9.5" y1="11.65" x2="9.5" y2="16" gradientUnits="userSpaceOnUse">
<stop stop-color="#182546" stop-opacity="0"/>
<stop offset="1" stop-color="#182546"/>
</linearGradient>
<linearGradient id="paint5_linear_800_3801" x1="7.5" y1="10.65" x2="7.5" y2="15" gradientUnits="userSpaceOnUse">
<stop stop-color="#182546" stop-opacity="0"/>
<stop offset="1" stop-color="#182546"/>
</linearGradient>
<radialGradient id="paint6_radial_800_3801" cx="0" cy="0" r="1" gradientUnits="userSpaceOnUse" gradientTransform="translate(9.8004 8.50014) rotate(174.289) scale(4.52265 4.09866)">
<stop stop-color="#192647"/>
<stop offset="1" stop-color="#0D1732"/>
</radialGradient>
<radialGradient id="paint7_radial_800_3801" cx="0" cy="0" r="1" gradientUnits="userSpaceOnUse" gradientTransform="translate(9.8004 8.50014) rotate(174.289) scale(4.52265 4.09866)">
<stop stop-color="#192647"/>
<stop offset="1" stop-color="#08122B"/>
</radialGradient>
</defs>
</svg>
