<svg width="70" height="70" viewBox="0 0 70 70" fill="none" xmlns="http://www.w3.org/2000/svg">
<circle cx="35" cy="35" r="34.3519" fill="#D9D9D9"/>
<circle cx="35" cy="35" r="34.3519" fill="url(#paint0_linear_483_1591)"/>
<circle cx="35" cy="35" r="34.3519" fill="url(#paint1_linear_483_1591)"/>
<circle cx="35" cy="35" r="34.3519" fill="url(#paint2_linear_483_1591)"/>
<circle cx="35" cy="35" r="34.3519" stroke="url(#paint3_linear_483_1591)" stroke-width="1.2963"/>
<circle cx="35" cy="35" r="34.3519" stroke="url(#paint4_linear_483_1591)" stroke-width="1.2963"/>
<path d="M50.2314 34.3521C51.0955 34.3522 51.8515 35.0001 51.8516 35.9722V40.8335C51.8515 44.3983 48.9349 47.3149 45.3701 47.3149H25.9258C22.361 47.3149 19.4444 44.3983 19.4443 40.8335V35.9722C19.4444 35.1081 20.2003 34.3521 21.0645 34.3521C21.9286 34.3521 22.6845 35.108 22.6846 35.9722V40.8335C22.6846 42.6699 24.1974 44.0737 25.9258 44.0737H45.3701C47.2065 44.0737 48.6103 42.6699 48.6104 40.8335V35.9722C48.6104 35.108 49.3673 34.3521 50.2314 34.3521ZM35.6494 21.3892C36.5135 21.3892 37.2703 22.1452 37.2705 23.0093V35.7563L42.8877 30.1392C43.5359 29.4911 44.6156 29.4914 45.2637 30.2476C45.8038 30.8957 45.696 31.868 45.0479 32.5161L43.9678 33.5962L37.918 39.645C37.2698 40.2931 36.5136 40.6177 35.6494 40.6177C34.8934 40.6175 34.0298 40.293 33.3818 39.645L27.332 33.5962L26.1436 32.4077C25.4955 31.7596 25.4958 30.6789 26.252 30.0308C26.9001 29.491 27.8725 29.5995 28.5205 30.2476L34.0293 35.7563V23.0093C34.0295 22.1453 34.7855 21.3894 35.6494 21.3892Z" fill="#91B0FF"/>
<path d="M50.2314 34.3521C51.0955 34.3522 51.8515 35.0001 51.8516 35.9722V40.8335C51.8515 44.3983 48.9349 47.3149 45.3701 47.3149H25.9258C22.361 47.3149 19.4444 44.3983 19.4443 40.8335V35.9722C19.4444 35.1081 20.2003 34.3521 21.0645 34.3521C21.9286 34.3521 22.6845 35.108 22.6846 35.9722V40.8335C22.6846 42.6699 24.1974 44.0737 25.9258 44.0737H45.3701C47.2065 44.0737 48.6103 42.6699 48.6104 40.8335V35.9722C48.6104 35.108 49.3673 34.3521 50.2314 34.3521ZM35.6494 21.3892C36.5135 21.3892 37.2703 22.1452 37.2705 23.0093V35.7563L42.8877 30.1392C43.5359 29.4911 44.6156 29.4914 45.2637 30.2476C45.8038 30.8957 45.696 31.868 45.0479 32.5161L43.9678 33.5962L37.918 39.645C37.2698 40.2931 36.5136 40.6177 35.6494 40.6177C34.8934 40.6175 34.0298 40.293 33.3818 39.645L27.332 33.5962L26.1436 32.4077C25.4955 31.7596 25.4958 30.6789 26.252 30.0308C26.9001 29.491 27.8725 29.5995 28.5205 30.2476L34.0293 35.7563V23.0093C34.0295 22.1453 34.7855 21.3894 35.6494 21.3892Z" fill="url(#paint5_linear_483_1591)"/>
<path d="M50.2314 34.3521C51.0955 34.3522 51.8515 35.0001 51.8516 35.9722V40.8335C51.8515 44.3983 48.9349 47.3149 45.3701 47.3149H25.9258C22.361 47.3149 19.4444 44.3983 19.4443 40.8335V35.9722C19.4444 35.1081 20.2003 34.3521 21.0645 34.3521C21.9286 34.3521 22.6845 35.108 22.6846 35.9722V40.8335C22.6846 42.6699 24.1974 44.0737 25.9258 44.0737H45.3701C47.2065 44.0737 48.6103 42.6699 48.6104 40.8335V35.9722C48.6104 35.108 49.3673 34.3521 50.2314 34.3521ZM35.6494 21.3892C36.5135 21.3892 37.2703 22.1452 37.2705 23.0093V35.7563L42.8877 30.1392C43.5359 29.4911 44.6156 29.4914 45.2637 30.2476C45.8038 30.8957 45.696 31.868 45.0479 32.5161L43.9678 33.5962L37.918 39.645C37.2698 40.2931 36.5136 40.6177 35.6494 40.6177C34.8934 40.6175 34.0298 40.293 33.3818 39.645L27.332 33.5962L26.1436 32.4077C25.4955 31.7596 25.4958 30.6789 26.252 30.0308C26.9001 29.491 27.8725 29.5995 28.5205 30.2476L34.0293 35.7563V23.0093C34.0295 22.1453 34.7855 21.3894 35.6494 21.3892Z" fill="url(#paint6_linear_483_1591)"/>
<defs>
<linearGradient id="paint0_linear_483_1591" x1="35" y1="0" x2="35" y2="70" gradientUnits="userSpaceOnUse">
<stop stop-color="#2B3A67"/>
<stop offset="1" stop-color="#1C2A4F"/>
</linearGradient>
<linearGradient id="paint1_linear_483_1591" x1="35" y1="0" x2="35" y2="70" gradientUnits="userSpaceOnUse">
<stop stop-color="#22325E"/>
<stop offset="1" stop-color="#162448"/>
</linearGradient>
<linearGradient id="paint2_linear_483_1591" x1="70" y1="35" x2="0" y2="35" gradientUnits="userSpaceOnUse">
<stop stop-color="#1D2B53"/>
<stop offset="1" stop-color="#22325E"/>
</linearGradient>
<linearGradient id="paint3_linear_483_1591" x1="35" y1="0" x2="35" y2="70" gradientUnits="userSpaceOnUse">
<stop stop-color="#394F89"/>
<stop offset="1" stop-color="#0F2151"/>
</linearGradient>
<linearGradient id="paint4_linear_483_1591" x1="35" y1="0" x2="35" y2="70" gradientUnits="userSpaceOnUse">
<stop stop-color="#2B3D71"/>
<stop offset="1" stop-color="#162449"/>
</linearGradient>
<linearGradient id="paint5_linear_483_1591" x1="35.6479" y1="21.3892" x2="35.6479" y2="47.3149" gradientUnits="userSpaceOnUse">
<stop stop-color="#91B0FF"/>
<stop offset="1" stop-color="#5A7ACC"/>
</linearGradient>
<linearGradient id="paint6_linear_483_1591" x1="35.6479" y1="21.3892" x2="35.6479" y2="47.3149" gradientUnits="userSpaceOnUse">
<stop stop-color="white"/>
<stop offset="1" stop-color="#BFD0FF"/>
</linearGradient>
</defs>
</svg>
