<svg width="70" height="70" viewBox="0 0 70 70" fill="none" xmlns="http://www.w3.org/2000/svg">
<circle cx="35" cy="35" r="34.3519" fill="#D9D9D9"/>
<circle cx="35" cy="35" r="34.3519" fill="url(#paint0_linear_483_1605)"/>
<circle cx="35" cy="35" r="34.3519" fill="url(#paint1_linear_483_1605)"/>
<circle cx="35" cy="35" r="34.3519" stroke="url(#paint2_linear_483_1605)" stroke-width="1.2963"/>
<circle cx="35" cy="35" r="34.3519" stroke="url(#paint3_linear_483_1605)" stroke-width="1.2963"/>
<g filter="url(#filter0_d_483_1605)">
<path d="M46.3427 40.3469C47.0584 40.3471 47.6385 40.928 47.6385 41.6438C47.6384 42.3595 47.0583 42.9395 46.3427 42.9397H23.0087C22.2929 42.9396 21.7129 42.3595 21.7128 41.6438C21.7128 40.928 22.2929 40.3471 23.0087 40.3469H46.3427ZM46.3427 32.5696C47.0583 32.5698 47.6384 33.1498 47.6385 33.8655C47.6385 34.5813 47.0584 35.1621 46.3427 35.1624H23.0087C22.2929 35.1622 21.7128 34.5813 21.7128 33.8655C21.7129 33.1497 22.2929 32.5697 23.0087 32.5696H46.3427ZM46.3427 24.7913C47.0584 24.7915 47.6385 25.3723 47.6385 26.0881C47.6383 26.8038 47.0583 27.3838 46.3427 27.384H23.0087C22.293 27.3839 21.713 26.8038 21.7128 26.0881C21.7128 25.3723 22.2929 24.7914 23.0087 24.7913H46.3427Z" fill="url(#paint4_linear_483_1605)"/>
</g>
<defs>
<filter id="filter0_d_483_1605" x="16.7128" y="20.7913" width="35.9258" height="28.1484" filterUnits="userSpaceOnUse" color-interpolation-filters="sRGB">
<feFlood flood-opacity="0" result="BackgroundImageFix"/>
<feColorMatrix in="SourceAlpha" type="matrix" values="0 0 0 0 0 0 0 0 0 0 0 0 0 0 0 0 0 0 127 0" result="hardAlpha"/>
<feOffset dy="1"/>
<feGaussianBlur stdDeviation="2.5"/>
<feComposite in2="hardAlpha" operator="out"/>
<feColorMatrix type="matrix" values="0 0 0 0 0 0 0 0 0 0 0 0 0 0 0 0 0 0 0.25 0"/>
<feBlend mode="normal" in2="BackgroundImageFix" result="effect1_dropShadow_483_1605"/>
<feBlend mode="normal" in="SourceGraphic" in2="effect1_dropShadow_483_1605" result="shape"/>
</filter>
<linearGradient id="paint0_linear_483_1605" x1="35" y1="0" x2="35" y2="70" gradientUnits="userSpaceOnUse">
<stop stop-color="#2B3A67"/>
<stop offset="1" stop-color="#1C2A4F"/>
</linearGradient>
<linearGradient id="paint1_linear_483_1605" x1="70" y1="35" x2="0" y2="35" gradientUnits="userSpaceOnUse">
<stop stop-color="#1D2B53"/>
<stop offset="1" stop-color="#22325E"/>
</linearGradient>
<linearGradient id="paint2_linear_483_1605" x1="35" y1="0" x2="35" y2="70" gradientUnits="userSpaceOnUse">
<stop stop-color="#394F89"/>
<stop offset="1" stop-color="#0F2151"/>
</linearGradient>
<linearGradient id="paint3_linear_483_1605" x1="35" y1="0" x2="35" y2="70" gradientUnits="userSpaceOnUse">
<stop stop-color="#2B3D71"/>
<stop offset="1" stop-color="#162449"/>
</linearGradient>
<linearGradient id="paint4_linear_483_1605" x1="34.6757" y1="24.7913" x2="34.6757" y2="42.9397" gradientUnits="userSpaceOnUse">
<stop stop-color="white"/>
<stop offset="1" stop-color="#BFD0FF"/>
</linearGradient>
</defs>
</svg>
