<svg width="70" height="70" viewBox="0 0 70 70" fill="none" xmlns="http://www.w3.org/2000/svg">
<circle cx="35" cy="35" r="34.3519" fill="#D9D9D9"/>
<circle cx="35" cy="35" r="34.3519" fill="url(#paint0_linear_800_3650)"/>
<circle cx="35" cy="35" r="34.3519" fill="url(#paint1_linear_800_3650)"/>
<circle cx="35" cy="35" r="34.3519" fill="url(#paint2_linear_800_3650)"/>
<circle cx="35" cy="35" r="34.3519" stroke="url(#paint3_linear_800_3650)" stroke-width="1.2963"/>
<circle cx="35" cy="35" r="34.3519" stroke="url(#paint4_linear_800_3650)" stroke-width="1.2963"/>
<g filter="url(#filter0_d_800_3650)">
<path d="M50.2311 35.9628C49.3669 35.9628 48.6108 36.7189 48.6108 37.5831V42.4443C48.6108 44.2807 47.2064 45.685 45.37 45.685H25.9256C24.1972 45.685 22.6848 44.2807 22.6848 42.4443V37.5831C22.6848 36.7189 21.9287 35.9628 21.0645 35.9628C20.2003 35.9628 19.4441 36.7189 19.4441 37.5831V42.4443C19.4441 46.0091 22.3608 48.9257 25.9256 48.9257H45.37C48.9348 48.9257 51.8515 46.0091 51.8515 42.4443V37.5831C51.8515 36.6109 51.0953 35.9628 50.2311 35.9628Z" fill="#57ABFE"/>
<path d="M27.3321 33.2068L33.3815 39.2562C34.0296 39.9043 34.8938 40.2284 35.65 40.2284C36.5142 40.2284 37.2703 39.9043 37.9185 39.2562L43.9679 33.2068L45.0481 32.1265C45.6963 31.4784 45.8043 30.5062 45.2642 29.858C44.616 29.1019 43.5358 29.1019 42.8876 29.75L41.6994 30.9383L37.2703 35.3673V22.6204C37.2703 21.7562 36.5142 21 35.65 21C34.7858 21 34.0296 21.7562 34.0296 22.6204V35.3673L30.8969 32.2346L28.5203 29.858C27.8722 29.2099 26.9 29.1019 26.2518 29.642C25.4956 30.2901 25.4957 31.3704 26.1438 32.0185L27.3321 33.2068Z" fill="url(#paint5_linear_800_3650)"/>
</g>
<defs>
<filter id="filter0_d_800_3650" x="14.4441" y="17" width="42.4075" height="37.9258" filterUnits="userSpaceOnUse" color-interpolation-filters="sRGB">
<feFlood flood-opacity="0" result="BackgroundImageFix"/>
<feColorMatrix in="SourceAlpha" type="matrix" values="0 0 0 0 0 0 0 0 0 0 0 0 0 0 0 0 0 0 127 0" result="hardAlpha"/>
<feOffset dy="1"/>
<feGaussianBlur stdDeviation="2.5"/>
<feComposite in2="hardAlpha" operator="out"/>
<feColorMatrix type="matrix" values="0 0 0 0 0 0 0 0 0 0 0 0 0 0 0 0 0 0 0.25 0"/>
<feBlend mode="normal" in2="BackgroundImageFix" result="effect1_dropShadow_800_3650"/>
<feBlend mode="normal" in="SourceGraphic" in2="effect1_dropShadow_800_3650" result="shape"/>
</filter>
<linearGradient id="paint0_linear_800_3650" x1="35" y1="0" x2="35" y2="70" gradientUnits="userSpaceOnUse">
<stop stop-color="#2B3A67"/>
<stop offset="1" stop-color="#1C2A4F"/>
</linearGradient>
<linearGradient id="paint1_linear_800_3650" x1="35" y1="0" x2="35" y2="70" gradientUnits="userSpaceOnUse">
<stop stop-color="#22325E"/>
<stop offset="1" stop-color="#162448"/>
</linearGradient>
<linearGradient id="paint2_linear_800_3650" x1="70" y1="35" x2="0" y2="35" gradientUnits="userSpaceOnUse">
<stop stop-color="#1D2B53"/>
<stop offset="1" stop-color="#22325E"/>
</linearGradient>
<linearGradient id="paint3_linear_800_3650" x1="35" y1="0" x2="35" y2="70" gradientUnits="userSpaceOnUse">
<stop stop-color="#394F89"/>
<stop offset="1" stop-color="#0F2151"/>
</linearGradient>
<linearGradient id="paint4_linear_800_3650" x1="35" y1="0" x2="35" y2="70" gradientUnits="userSpaceOnUse">
<stop stop-color="#2B3D71"/>
<stop offset="1" stop-color="#162449"/>
</linearGradient>
<linearGradient id="paint5_linear_800_3650" x1="35.6402" y1="21" x2="35.6402" y2="40.2284" gradientUnits="userSpaceOnUse">
<stop stop-color="white" stop-opacity="0.7"/>
<stop offset="1" stop-color="white"/>
</linearGradient>
</defs>
</svg>
