<svg width="70" height="70" viewBox="0 0 70 70" fill="none" xmlns="http://www.w3.org/2000/svg">
<circle cx="35" cy="35" r="34.3519" fill="#D9D9D9"/>
<circle cx="35" cy="35" r="34.3519" fill="url(#paint0_linear_800_3659)"/>
<circle cx="35" cy="35" r="34.3519" fill="url(#paint1_linear_800_3659)"/>
<circle cx="35" cy="35" r="34.3519" stroke="url(#paint2_linear_800_3659)" stroke-width="1.2963"/>
<circle cx="35" cy="35" r="34.3519" stroke="url(#paint3_linear_800_3659)" stroke-width="1.2963"/>
<circle cx="35" cy="35" r="34.3519" stroke="url(#paint4_linear_800_3659)" stroke-width="1.2963"/>
<circle cx="35" cy="35" r="34.3519" stroke="url(#paint5_linear_800_3659)" stroke-width="1.2963"/>
<circle cx="35" cy="35" r="34.3519" stroke="url(#paint6_linear_800_3659)" stroke-width="1.2963"/>
<circle cx="35" cy="35" r="34.3519" stroke="url(#paint7_linear_800_3659)" stroke-width="1.2963"/>
<path d="M21.916 48.083H28.583V51.916H21.666C20.6829 51.9159 19.8348 51.5632 19.1357 50.8643C18.4367 50.165 18.083 49.3164 18.083 48.333V41.416H21.916V48.083ZM51.916 48.333C51.916 49.3165 51.5635 50.165 50.8643 50.8643C50.165 51.5635 49.3165 51.916 48.333 51.916H41.416V48.083H48.083V41.416H51.916V48.333ZM19.4365 50.8066C19.4582 50.8265 19.4809 50.8451 19.5029 50.8643C19.4384 50.8081 19.3746 50.7496 19.3125 50.6875L19.4365 50.8066ZM28.583 21.916H21.916V28.583H18.083V21.666C18.0832 20.6828 18.4366 19.8349 19.1357 19.1357C19.8349 18.4366 20.6828 18.0831 21.666 18.083H28.583V21.916ZM48.333 18.083C49.3164 18.083 50.165 18.4367 50.8643 19.1357C51.5632 19.8348 51.9159 20.683 51.916 21.666V28.583H48.083V21.916H41.416V18.083H48.333ZM19.1934 19.4365C19.1867 19.4438 19.1804 19.4516 19.1738 19.459C19.2183 19.4095 19.2645 19.3605 19.3125 19.3125L19.1934 19.4365Z" fill="#E3E3E3"/>
<path d="M21.916 48.083H28.583V51.916H21.666C20.6829 51.9159 19.8348 51.5632 19.1357 50.8643C18.4367 50.165 18.083 49.3164 18.083 48.333V41.416H21.916V48.083ZM51.916 48.333C51.916 49.3165 51.5635 50.165 50.8643 50.8643C50.165 51.5635 49.3165 51.916 48.333 51.916H41.416V48.083H48.083V41.416H51.916V48.333ZM19.4365 50.8066C19.4582 50.8265 19.4809 50.8451 19.5029 50.8643C19.4384 50.8081 19.3746 50.7496 19.3125 50.6875L19.4365 50.8066ZM28.583 21.916H21.916V28.583H18.083V21.666C18.0832 20.6828 18.4366 19.8349 19.1357 19.1357C19.8349 18.4366 20.6828 18.0831 21.666 18.083H28.583V21.916ZM48.333 18.083C49.3164 18.083 50.165 18.4367 50.8643 19.1357C51.5632 19.8348 51.9159 20.683 51.916 21.666V28.583H48.083V21.916H41.416V18.083H48.333ZM19.1934 19.4365C19.1867 19.4438 19.1804 19.4516 19.1738 19.459C19.2183 19.4095 19.2645 19.3605 19.3125 19.3125L19.1934 19.4365Z" fill="url(#paint8_linear_800_3659)"/>
<defs>
<linearGradient id="paint0_linear_800_3659" x1="35" y1="0" x2="35" y2="70" gradientUnits="userSpaceOnUse">
<stop stop-color="#2B3A67"/>
<stop offset="1" stop-color="#1C2A4F"/>
</linearGradient>
<linearGradient id="paint1_linear_800_3659" x1="4.37172e-05" y1="35" x2="70" y2="35" gradientUnits="userSpaceOnUse">
<stop stop-color="#62B1FF"/>
<stop offset="1" stop-color="#2B93FA"/>
</linearGradient>
<linearGradient id="paint2_linear_800_3659" x1="35" y1="0" x2="35" y2="70" gradientUnits="userSpaceOnUse">
<stop stop-color="#C7EAFF"/>
<stop offset="1" stop-color="#0066C9"/>
</linearGradient>
<linearGradient id="paint3_linear_800_3659" x1="35" y1="0" x2="35" y2="70" gradientUnits="userSpaceOnUse">
<stop stop-color="#394F89"/>
<stop offset="1" stop-color="#0F2151"/>
</linearGradient>
<linearGradient id="paint4_linear_800_3659" x1="35" y1="0" x2="35" y2="70" gradientUnits="userSpaceOnUse">
<stop stop-color="#BED1FF"/>
<stop offset="1" stop-color="#34529E"/>
</linearGradient>
<linearGradient id="paint5_linear_800_3659" x1="35" y1="0" x2="35" y2="70" gradientUnits="userSpaceOnUse">
<stop stop-color="#BCCFFF"/>
<stop offset="1" stop-color="#6387DD"/>
</linearGradient>
<linearGradient id="paint6_linear_800_3659" x1="35" y1="0" x2="35" y2="70" gradientUnits="userSpaceOnUse">
<stop stop-color="#A2DDFF"/>
<stop offset="1" stop-color="#0291E4"/>
</linearGradient>
<linearGradient id="paint7_linear_800_3659" x1="35" y1="0" x2="35" y2="70" gradientUnits="userSpaceOnUse">
<stop stop-color="#8BC5FF"/>
<stop offset="1" stop-color="#0076EB"/>
</linearGradient>
<linearGradient id="paint8_linear_800_3659" x1="34.9999" y1="18.3334" x2="34.9999" y2="51.6667" gradientUnits="userSpaceOnUse">
<stop stop-color="#003D77"/>
<stop offset="1" stop-color="#002453"/>
</linearGradient>
</defs>
</svg>
