<svg width="70" height="70" viewBox="0 0 70 70" fill="none" xmlns="http://www.w3.org/2000/svg">
<circle cx="35" cy="35" r="34.3519" fill="#D9D9D9"/>
<circle cx="35" cy="35" r="34.3519" fill="url(#paint0_linear_483_1602)"/>
<circle cx="35" cy="35" r="34.3519" fill="url(#paint1_linear_483_1602)"/>
<circle cx="35" cy="35" r="34.3519" stroke="url(#paint2_linear_483_1602)" stroke-width="1.2963"/>
<circle cx="35" cy="35" r="34.3519" stroke="url(#paint3_linear_483_1602)" stroke-width="1.2963"/>
<circle cx="35" cy="35" r="34.3519" stroke="url(#paint4_linear_483_1602)" stroke-width="1.2963"/>
<circle cx="35" cy="35" r="34.3519" stroke="url(#paint5_linear_483_1602)" stroke-width="1.2963"/>
<circle cx="35" cy="35" r="34.3519" stroke="url(#paint6_linear_483_1602)" stroke-width="1.2963"/>
<circle cx="35" cy="35" r="34.3519" stroke="url(#paint7_linear_483_1602)" stroke-width="1.2963"/>
<path d="M49.9795 46.6875V49.9795H46.6875V46.6875H49.9795ZM43.3125 46.6875V49.9795H40.0205V46.6875H43.3125ZM33.3125 36.6875V49.9795H20.0205V36.6875H33.3125ZM23.3125 46.6875H30.0205V39.9795H23.3125V46.6875ZM46.6455 43.3545V46.6455H43.3545V43.3545H46.6455ZM39.9795 43.3545V46.6455H36.6875V43.3545H39.9795ZM49.9795 40.0205V43.3125H46.6875V40.0205H49.9795ZM43.3125 40.0205V43.3125H40.0205V40.0205H43.3125ZM46.6455 36.6875V39.9795H43.3545V36.6875H46.6455ZM39.9795 36.6875V39.9795H36.6875V36.6875H39.9795ZM49.9795 20.0205V33.3125H36.6875V20.0205H49.9795ZM33.3125 20.0205V33.3125H20.0205V20.0205H33.3125ZM23.3125 30.0205H30.0205V23.3125H23.3125V30.0205ZM39.9795 30.0205H46.6875V23.3125H39.9795V30.0205Z" fill="url(#paint8_linear_483_1602)"/>
<path d="M49.9795 46.6875V49.9795H46.6875V46.6875H49.9795ZM43.3125 46.6875V49.9795H40.0205V46.6875H43.3125ZM33.3125 36.6875V49.9795H20.0205V36.6875H33.3125ZM23.3125 46.6875H30.0205V39.9795H23.3125V46.6875ZM46.6455 43.3545V46.6455H43.3545V43.3545H46.6455ZM39.9795 43.3545V46.6455H36.6875V43.3545H39.9795ZM49.9795 40.0205V43.3125H46.6875V40.0205H49.9795ZM43.3125 40.0205V43.3125H40.0205V40.0205H43.3125ZM46.6455 36.6875V39.9795H43.3545V36.6875H46.6455ZM39.9795 36.6875V39.9795H36.6875V36.6875H39.9795ZM49.9795 20.0205V33.3125H36.6875V20.0205H49.9795ZM33.3125 20.0205V33.3125H20.0205V20.0205H33.3125ZM23.3125 30.0205H30.0205V23.3125H23.3125V30.0205ZM39.9795 30.0205H46.6875V23.3125H39.9795V30.0205Z" fill="url(#paint9_linear_483_1602)"/>
<path d="M49.9795 46.6875V49.9795H46.6875V46.6875H49.9795ZM43.3125 46.6875V49.9795H40.0205V46.6875H43.3125ZM33.3125 36.6875V49.9795H20.0205V36.6875H33.3125ZM23.3125 46.6875H30.0205V39.9795H23.3125V46.6875ZM46.6455 43.3545V46.6455H43.3545V43.3545H46.6455ZM39.9795 43.3545V46.6455H36.6875V43.3545H39.9795ZM49.9795 40.0205V43.3125H46.6875V40.0205H49.9795ZM43.3125 40.0205V43.3125H40.0205V40.0205H43.3125ZM46.6455 36.6875V39.9795H43.3545V36.6875H46.6455ZM39.9795 36.6875V39.9795H36.6875V36.6875H39.9795ZM49.9795 20.0205V33.3125H36.6875V20.0205H49.9795ZM33.3125 20.0205V33.3125H20.0205V20.0205H33.3125ZM23.3125 30.0205H30.0205V23.3125H23.3125V30.0205ZM39.9795 30.0205H46.6875V23.3125H39.9795V30.0205Z" stroke="url(#paint10_linear_483_1602)" stroke-width="0.0416667"/>
<path d="M49.9795 46.6875V49.9795H46.6875V46.6875H49.9795ZM43.3125 46.6875V49.9795H40.0205V46.6875H43.3125ZM33.3125 36.6875V49.9795H20.0205V36.6875H33.3125ZM23.3125 46.6875H30.0205V39.9795H23.3125V46.6875ZM46.6455 43.3545V46.6455H43.3545V43.3545H46.6455ZM39.9795 43.3545V46.6455H36.6875V43.3545H39.9795ZM49.9795 40.0205V43.3125H46.6875V40.0205H49.9795ZM43.3125 40.0205V43.3125H40.0205V40.0205H43.3125ZM46.6455 36.6875V39.9795H43.3545V36.6875H46.6455ZM39.9795 36.6875V39.9795H36.6875V36.6875H39.9795ZM49.9795 20.0205V33.3125H36.6875V20.0205H49.9795ZM33.3125 20.0205V33.3125H20.0205V20.0205H33.3125ZM23.3125 30.0205H30.0205V23.3125H23.3125V30.0205ZM39.9795 30.0205H46.6875V23.3125H39.9795V30.0205Z" stroke="url(#paint11_linear_483_1602)" stroke-width="0.0416667"/>
<defs>
<linearGradient id="paint0_linear_483_1602" x1="35" y1="0" x2="35" y2="70" gradientUnits="userSpaceOnUse">
<stop stop-color="#2B3A67"/>
<stop offset="1" stop-color="#1C2A4F"/>
</linearGradient>
<linearGradient id="paint1_linear_483_1602" x1="4.37172e-05" y1="35" x2="70" y2="35" gradientUnits="userSpaceOnUse">
<stop stop-color="#62B1FF"/>
<stop offset="1" stop-color="#2B93FA"/>
</linearGradient>
<linearGradient id="paint2_linear_483_1602" x1="35" y1="0" x2="35" y2="70" gradientUnits="userSpaceOnUse">
<stop stop-color="#C7EAFF"/>
<stop offset="1" stop-color="#0066C9"/>
</linearGradient>
<linearGradient id="paint3_linear_483_1602" x1="35" y1="0" x2="35" y2="70" gradientUnits="userSpaceOnUse">
<stop stop-color="#394F89"/>
<stop offset="1" stop-color="#0F2151"/>
</linearGradient>
<linearGradient id="paint4_linear_483_1602" x1="35" y1="0" x2="35" y2="70" gradientUnits="userSpaceOnUse">
<stop stop-color="#BED1FF"/>
<stop offset="1" stop-color="#34529E"/>
</linearGradient>
<linearGradient id="paint5_linear_483_1602" x1="35" y1="0" x2="35" y2="70" gradientUnits="userSpaceOnUse">
<stop stop-color="#BCCFFF"/>
<stop offset="1" stop-color="#6387DD"/>
</linearGradient>
<linearGradient id="paint6_linear_483_1602" x1="35" y1="0" x2="35" y2="70" gradientUnits="userSpaceOnUse">
<stop stop-color="#A2DDFF"/>
<stop offset="1" stop-color="#0291E4"/>
</linearGradient>
<linearGradient id="paint7_linear_483_1602" x1="35" y1="0" x2="35" y2="70" gradientUnits="userSpaceOnUse">
<stop stop-color="#8BC5FF"/>
<stop offset="1" stop-color="#0076EB"/>
</linearGradient>
<linearGradient id="paint8_linear_483_1602" x1="35" y1="20" x2="35" y2="50" gradientUnits="userSpaceOnUse">
<stop stop-color="#0C6ECD"/>
<stop offset="1" stop-color="#003C76"/>
</linearGradient>
<linearGradient id="paint9_linear_483_1602" x1="35" y1="20" x2="35" y2="50" gradientUnits="userSpaceOnUse">
<stop stop-color="#003D77"/>
<stop offset="1" stop-color="#002453"/>
</linearGradient>
<linearGradient id="paint10_linear_483_1602" x1="35" y1="20" x2="35" y2="50" gradientUnits="userSpaceOnUse">
<stop stop-color="#C7EAFF"/>
<stop offset="1" stop-color="#0066C9"/>
</linearGradient>
<linearGradient id="paint11_linear_483_1602" x1="35" y1="20" x2="35" y2="50" gradientUnits="userSpaceOnUse">
<stop stop-color="#394F89"/>
<stop offset="1" stop-color="#0F2151"/>
</linearGradient>
</defs>
</svg>
