<svg width="260" height="298" viewBox="0 0 260 298" fill="none" xmlns="http://www.w3.org/2000/svg">
<path d="M119.655 6.27832C126.261 3.44732 133.739 3.44732 140.345 6.27832L243.044 50.293C252.699 54.431 258.96 63.925 258.96 74.4297V128.542C258.96 176.187 235.951 220.899 197.18 248.593L145.264 285.676C136.133 292.198 123.867 292.198 114.736 285.676L62.8203 248.593C24.0499 220.899 1.04004 176.187 1.04004 128.542V74.4297C1.04004 63.925 7.30068 54.431 16.9561 50.293L119.655 6.27832Z" stroke="#708BF4" stroke-opacity="0.05" stroke-width="2.08"/>
<path d="M120.451 17.2793C126.549 14.6661 133.451 14.6661 139.549 17.2793L234.349 57.9082C243.261 61.7279 249.04 70.491 249.04 80.1875V130.138C249.04 174.118 227.801 215.391 192.012 240.954L144.089 275.185C135.661 281.205 124.339 281.205 115.911 275.185L67.9883 240.954C32.2001 215.391 10.96 174.118 10.96 130.138V80.1875C10.9601 70.491 16.7389 61.7279 25.6514 57.9082L120.451 17.2793Z" stroke="#708BF4" stroke-opacity="0.15" stroke-width="1.92"/>
<path d="M121.294 28.3906C126.853 26.0081 133.147 26.0081 138.706 28.3906L225.605 65.6328C233.731 69.1153 239 77.1057 239 85.9463V131.733C239 172.01 219.549 209.807 186.774 233.218L142.846 264.596C135.162 270.084 124.838 270.084 117.154 264.596L73.2256 233.218C40.4513 209.807 21 172.01 21 131.733V85.9463C21 77.1057 26.2687 69.1153 34.3945 65.6328L121.294 28.3906Z" stroke="#708BF4" stroke-opacity="0.5" stroke-width="2"/>
<path d="M77.8584 226.327L117.794 254.852C125.096 260.068 134.904 260.068 142.206 254.852L182.141 226.327C212.176 204.874 230 170.238 230 133.329V91.704C230 83.3034 224.994 75.7111 217.272 72.4019L138.272 38.5448C132.99 36.2808 127.01 36.2808 121.728 38.5448L42.7277 72.4019C35.0063 75.7111 30 83.3034 30 91.704V133.329C30 170.238 47.8247 204.874 77.8584 226.327Z" fill="black"/>
<path d="M77.8584 226.327L117.794 254.852C125.096 260.068 134.904 260.068 142.206 254.852L182.141 226.327C212.176 204.874 230 170.238 230 133.329V91.704C230 83.3034 224.994 75.7111 217.272 72.4019L138.272 38.5448C132.99 36.2808 127.01 36.2808 121.728 38.5448L42.7277 72.4019C35.0063 75.7111 30 83.3034 30 91.704V133.329C30 170.238 47.8247 204.874 77.8584 226.327Z" fill="url(#paint0_linear_450_2585)"/>
<path d="M123.479 42.6294C127.643 40.8447 132.357 40.8447 136.521 42.6294L215.521 76.4868C221.609 79.0956 225.556 85.0811 225.556 91.7036V133.329C225.556 168.802 208.425 202.092 179.559 222.71L139.623 251.236C133.867 255.348 126.133 255.348 120.377 251.236L80.4414 222.71C51.5757 202.092 34.4443 168.802 34.4443 133.329V91.7036C34.4445 85.0811 38.3914 79.0956 44.4785 76.4868L123.479 42.6294Z" stroke="url(#paint1_linear_450_2585)" stroke-width="8.88889"/>
<path d="M123.479 42.6294C127.643 40.8447 132.357 40.8447 136.521 42.6294L215.521 76.4868C221.609 79.0956 225.556 85.0811 225.556 91.7036V133.329C225.556 168.802 208.425 202.092 179.559 222.71L139.623 251.236C133.867 255.348 126.133 255.348 120.377 251.236L80.4414 222.71C51.5757 202.092 34.4443 168.802 34.4443 133.329V91.7036C34.4445 85.0811 38.3914 79.0956 44.4785 76.4868L123.479 42.6294Z" stroke="url(#paint2_linear_450_2585)" stroke-width="8.88889"/>
<path d="M123.479 42.6294C127.643 40.8447 132.357 40.8447 136.521 42.6294L215.521 76.4868C221.609 79.0956 225.556 85.0811 225.556 91.7036V133.329C225.556 168.802 208.425 202.092 179.559 222.71L139.623 251.236C133.867 255.348 126.133 255.348 120.377 251.236L80.4414 222.71C51.5757 202.092 34.4443 168.802 34.4443 133.329V91.7036C34.4445 85.0811 38.3914 79.0956 44.4785 76.4868L123.479 42.6294Z" stroke="url(#paint3_linear_450_2585)" stroke-width="8.88889"/>
<g filter="url(#filter0_i_450_2585)">
<path d="M77.8584 226.327L117.794 254.852C125.096 260.068 134.904 260.068 142.206 254.852L182.141 226.327C212.176 204.874 230 170.238 230 133.329V91.704C230 83.3034 224.994 75.7111 217.272 72.4019L138.272 38.5448C132.99 36.2808 127.01 36.2808 121.728 38.5448L42.7277 72.4019C35.0063 75.7111 30 83.3034 30 91.704V133.329C30 170.238 47.8247 204.874 77.8584 226.327Z" fill="black" fill-opacity="0.01"/>
</g>
<g filter="url(#filter1_ii_450_2585)">
<path fill-rule="evenodd" clip-rule="evenodd" d="M147.625 154.25C163.158 154.25 175.75 141.658 175.75 126.125C175.75 110.592 163.158 97.9995 147.625 97.9995C132.092 97.9995 119.5 110.592 119.5 126.125C119.5 131.628 121.081 136.762 123.813 141.098L85.6614 179.25L104.393 197.981L113.232 189.143L103.339 179.25L113.25 169.338L123.143 179.231L131.982 170.393L122.089 160.5L132.652 149.937C136.988 152.669 142.122 154.25 147.625 154.25ZM147.625 141.75C156.254 141.75 163.25 134.754 163.25 126.125C163.25 117.495 156.254 110.5 147.625 110.5C138.996 110.5 132 117.495 132 126.125C132 134.754 138.996 141.75 147.625 141.75Z" fill="black"/>
<path fill-rule="evenodd" clip-rule="evenodd" d="M147.625 154.25C163.158 154.25 175.75 141.658 175.75 126.125C175.75 110.592 163.158 97.9995 147.625 97.9995C132.092 97.9995 119.5 110.592 119.5 126.125C119.5 131.628 121.081 136.762 123.813 141.098L85.6614 179.25L104.393 197.981L113.232 189.143L103.339 179.25L113.25 169.338L123.143 179.231L131.982 170.393L122.089 160.5L132.652 149.937C136.988 152.669 142.122 154.25 147.625 154.25ZM147.625 141.75C156.254 141.75 163.25 134.754 163.25 126.125C163.25 117.495 156.254 110.5 147.625 110.5C138.996 110.5 132 117.495 132 126.125C132 134.754 138.996 141.75 147.625 141.75Z" fill="url(#paint4_linear_450_2585)"/>
<path fill-rule="evenodd" clip-rule="evenodd" d="M147.625 154.25C163.158 154.25 175.75 141.658 175.75 126.125C175.75 110.592 163.158 97.9995 147.625 97.9995C132.092 97.9995 119.5 110.592 119.5 126.125C119.5 131.628 121.081 136.762 123.813 141.098L85.6614 179.25L104.393 197.981L113.232 189.143L103.339 179.25L113.25 169.338L123.143 179.231L131.982 170.393L122.089 160.5L132.652 149.937C136.988 152.669 142.122 154.25 147.625 154.25ZM147.625 141.75C156.254 141.75 163.25 134.754 163.25 126.125C163.25 117.495 156.254 110.5 147.625 110.5C138.996 110.5 132 117.495 132 126.125C132 134.754 138.996 141.75 147.625 141.75Z" fill="url(#paint5_linear_450_2585)"/>
</g>
<path d="M158.882 230.082H221.118C227.963 230.082 232.227 222.658 228.779 216.746L197.66 163.4C194.238 157.533 185.762 157.533 182.34 163.4L151.221 216.746C147.773 222.658 152.037 230.082 158.882 230.082Z" fill="#D9D9D9"/>
<path d="M158.882 230.082H221.118C227.963 230.082 232.227 222.658 228.779 216.746L197.66 163.4C194.238 157.533 185.762 157.533 182.34 163.4L151.221 216.746C147.773 222.658 152.037 230.082 158.882 230.082Z" fill="url(#paint6_linear_450_2585)"/>
<path d="M158.882 230.082H221.118C227.963 230.082 232.227 222.658 228.779 216.746L197.66 163.4C194.238 157.533 185.762 157.533 182.34 163.4L151.221 216.746C147.773 222.658 152.037 230.082 158.882 230.082Z" stroke="#312938" stroke-width="4" stroke-linecap="round" stroke-linejoin="round"/>
<path d="M158.882 230.082H221.118C227.963 230.082 232.227 222.658 228.779 216.746L197.66 163.4C194.238 157.533 185.762 157.533 182.34 163.4L151.221 216.746C147.773 222.658 152.037 230.082 158.882 230.082Z" stroke="url(#paint7_linear_450_2585)" stroke-width="4" stroke-linecap="round" stroke-linejoin="round"/>
<path d="M158.882 230.082H221.118C227.963 230.082 232.227 222.658 228.779 216.746L197.66 163.4C194.238 157.533 185.762 157.533 182.34 163.4L151.221 216.746C147.773 222.658 152.037 230.082 158.882 230.082Z" stroke="url(#paint8_linear_450_2585)" stroke-width="4" stroke-linecap="round" stroke-linejoin="round"/>
<path d="M189.907 212.21H189.952M189.907 198.907V185.605" stroke="#312938" stroke-width="8.86825" stroke-linecap="round" stroke-linejoin="round"/>
<defs>
<filter id="filter0_i_450_2585" x="30" y="36.8467" width="200" height="221.917" filterUnits="userSpaceOnUse" color-interpolation-filters="sRGB">
<feFlood flood-opacity="0" result="BackgroundImageFix"/>
<feBlend mode="normal" in="SourceGraphic" in2="BackgroundImageFix" result="shape"/>
<feColorMatrix in="SourceAlpha" type="matrix" values="0 0 0 0 0 0 0 0 0 0 0 0 0 0 0 0 0 0 127 0" result="hardAlpha"/>
<feOffset dy="2"/>
<feComposite in2="hardAlpha" operator="arithmetic" k2="-1" k3="1"/>
<feColorMatrix type="matrix" values="0 0 0 0 1 0 0 0 0 1 0 0 0 0 1 0 0 0 0.5 0"/>
<feBlend mode="plus-lighter" in2="shape" result="effect1_innerShadow_450_2585"/>
</filter>
<filter id="filter1_ii_450_2585" x="85.6614" y="97.9995" width="90.0886" height="99.9819" filterUnits="userSpaceOnUse" color-interpolation-filters="sRGB">
<feFlood flood-opacity="0" result="BackgroundImageFix"/>
<feBlend mode="normal" in="SourceGraphic" in2="BackgroundImageFix" result="shape"/>
<feColorMatrix in="SourceAlpha" type="matrix" values="0 0 0 0 0 0 0 0 0 0 0 0 0 0 0 0 0 0 127 0" result="hardAlpha"/>
<feOffset dy="2"/>
<feComposite in2="hardAlpha" operator="arithmetic" k2="-1" k3="1"/>
<feColorMatrix type="matrix" values="0 0 0 0 1 0 0 0 0 1 0 0 0 0 1 0 0 0 0.4 0"/>
<feBlend mode="normal" in2="shape" result="effect1_innerShadow_450_2585"/>
<feColorMatrix in="SourceAlpha" type="matrix" values="0 0 0 0 0 0 0 0 0 0 0 0 0 0 0 0 0 0 127 0" result="hardAlpha"/>
<feOffset dy="-2"/>
<feComposite in2="hardAlpha" operator="arithmetic" k2="-1" k3="1"/>
<feColorMatrix type="matrix" values="0 0 0 0 0 0 0 0 0 0 0 0 0 0 0 0 0 0 0.2 0"/>
<feBlend mode="normal" in2="effect1_innerShadow_450_2585" result="effect2_innerShadow_450_2585"/>
</filter>
<linearGradient id="paint0_linear_450_2585" x1="130" y1="34.9995" x2="130" y2="263.571" gradientUnits="userSpaceOnUse">
<stop stop-color="#19233C"/>
<stop offset="1" stop-color="#1647C3"/>
</linearGradient>
<linearGradient id="paint1_linear_450_2585" x1="130" y1="34.9995" x2="130" y2="263.571" gradientUnits="userSpaceOnUse">
<stop stop-color="#C1F2FF"/>
<stop offset="0.42" stop-color="#2077F8"/>
<stop offset="0.700262" stop-color="#000F4D"/>
</linearGradient>
<linearGradient id="paint2_linear_450_2585" x1="130" y1="34.9995" x2="130" y2="263.571" gradientUnits="userSpaceOnUse">
<stop stop-color="#C1F2FF"/>
<stop offset="0.700262" stop-color="#718CF5"/>
</linearGradient>
<linearGradient id="paint3_linear_450_2585" x1="130" y1="34.9995" x2="130" y2="263.571" gradientUnits="userSpaceOnUse">
<stop stop-color="#D8E3FF"/>
<stop offset="0.700262" stop-color="#718CF5"/>
</linearGradient>
<linearGradient id="paint4_linear_450_2585" x1="130.706" y1="97.9995" x2="130.706" y2="197.981" gradientUnits="userSpaceOnUse">
<stop stop-color="white"/>
<stop offset="1" stop-color="#6DA8FF"/>
</linearGradient>
<linearGradient id="paint5_linear_450_2585" x1="130.706" y1="97.9995" x2="130.706" y2="197.981" gradientUnits="userSpaceOnUse">
<stop stop-color="white"/>
<stop offset="1" stop-color="#6891FE"/>
</linearGradient>
<linearGradient id="paint6_linear_450_2585" x1="190" y1="159" x2="190.533" y2="242.2" gradientUnits="userSpaceOnUse">
<stop stop-color="#FFC414"/>
<stop offset="1" stop-color="#FF9500"/>
</linearGradient>
<linearGradient id="paint7_linear_450_2585" x1="190" y1="159" x2="190" y2="230.082" gradientUnits="userSpaceOnUse">
<stop stop-color="#5C486E"/>
<stop offset="1" stop-color="#312938"/>
</linearGradient>
<linearGradient id="paint8_linear_450_2585" x1="190" y1="159" x2="190" y2="230.082" gradientUnits="userSpaceOnUse">
<stop stop-color="white"/>
<stop offset="1" stop-color="#EBD4FF"/>
</linearGradient>
</defs>
</svg>
