<svg width="17" height="16" viewBox="0 0 17 16" fill="none" xmlns="http://www.w3.org/2000/svg">
<path d="M14.1582 0.00878906C14.3014 -0.018193 14.4495 0.0186284 14.5635 0.110352C14.6811 0.205263 14.7499 0.348727 14.75 0.5V9.02246C14.7499 9.155 14.6971 9.28225 14.6035 9.37598L8.13574 15.8535C8.04206 15.9473 7.91471 16 7.78223 16C7.64995 15.9999 7.52329 15.9471 7.42969 15.8535L2.89648 11.3135C2.80285 11.2197 2.75 11.0926 2.75 10.96V2.90039C2.75 2.66513 2.91403 2.46121 3.14355 2.41113L14.1445 0.0117188L14.1582 0.00878906ZM8.27441 11.6709L8.27637 14.2959L13.751 8.81445V5.76172L8.27441 11.6709ZM3.74902 3.30273V10.7529L7.27734 14.2871L7.27148 7.47461C7.27147 7.46488 7.2729 7.45491 7.27344 7.44531C7.2746 7.42472 7.2756 7.40415 7.2793 7.38379C7.28165 7.37081 7.28573 7.35832 7.28906 7.3457C7.29437 7.32563 7.29977 7.30557 7.30762 7.28613C7.312 7.2753 7.31814 7.26533 7.32324 7.25488C7.33176 7.23744 7.3399 7.21971 7.35059 7.20312C7.35903 7.19 7.36931 7.17826 7.37891 7.16602C7.38744 7.15515 7.39473 7.14312 7.4043 7.13281L12.7979 1.32812L3.74902 3.30273ZM8.27051 7.66895L8.27246 10.2021L13.751 4.29004V1.77148L8.27051 7.66895Z" fill="#8C9FBB"/>
</svg>
