<svg width="200" height="184" viewBox="0 0 200 184" fill="none" xmlns="http://www.w3.org/2000/svg">
<rect y="32" width="200" height="47" rx="14.3" fill="#EEEEEE"/>
<rect y="32" width="200" height="47" rx="14.3" fill="black" fill-opacity="0.2"/>
<g filter="url(#filter0_i_450_2524)">
<rect x="3" width="194.286" height="106.29" rx="11.5784" fill="#EFEFF8"/>
<rect x="3" width="194.286" height="106.29" rx="11.5784" fill="#FFC414"/>
<rect x="3" width="194.286" height="106.29" rx="11.5784" fill="url(#paint0_linear_450_2524)"/>
</g>
<g filter="url(#filter1_i_450_2524)">
<rect x="2.85706" y="15" width="194.286" height="106.29" rx="11.5784" fill="#61C5FF"/>
<rect x="2.85706" y="15" width="194.286" height="106.29" rx="11.5784" fill="url(#paint1_linear_450_2524)"/>
</g>
<g filter="url(#filter2_i_450_2524)">
<rect x="2.85718" y="31.6665" width="194.286" height="106.29" rx="11.5784" fill="#FF630F"/>
<rect x="2.85718" y="31.6665" width="194.286" height="106.29" rx="11.5784" fill="url(#paint2_linear_450_2524)"/>
</g>
<g filter="url(#filter3_ii_450_2524)">
<path d="M185.697 50.3691C193.596 50.3691 200 56.7727 200 64.6719V169.559C200 177.458 193.596 183.861 185.697 183.861H14.3027C6.40355 183.861 0 177.458 0 169.559V64.6719C9.33284e-06 56.7727 6.40356 50.3691 14.3027 50.3691H60.2588C67.6473 50.3691 73.509 56.3793 77.5616 62.5571C82.3525 69.8605 90.6127 74.6836 100 74.6836C109.387 74.6836 117.647 69.8604 122.438 62.5571C126.49 56.3792 132.352 50.3691 139.74 50.3691H185.697Z" fill="#D9D9D9"/>
<path d="M185.697 50.3691C193.596 50.3691 200 56.7727 200 64.6719V169.559C200 177.458 193.596 183.861 185.697 183.861H14.3027C6.40355 183.861 0 177.458 0 169.559V64.6719C9.33284e-06 56.7727 6.40356 50.3691 14.3027 50.3691H60.2588C67.6473 50.3691 73.509 56.3793 77.5616 62.5571C82.3525 69.8605 90.6127 74.6836 100 74.6836C109.387 74.6836 117.647 69.8604 122.438 62.5571C126.49 56.3792 132.352 50.3691 139.74 50.3691H185.697Z" fill="url(#paint3_linear_450_2524)"/>
<path d="M185.697 50.3691C193.596 50.3691 200 56.7727 200 64.6719V169.559C200 177.458 193.596 183.861 185.697 183.861H14.3027C6.40355 183.861 0 177.458 0 169.559V64.6719C9.33284e-06 56.7727 6.40356 50.3691 14.3027 50.3691H60.2588C67.6473 50.3691 73.509 56.3793 77.5616 62.5571C82.3525 69.8605 90.6127 74.6836 100 74.6836C109.387 74.6836 117.647 69.8604 122.438 62.5571C126.49 56.3792 132.352 50.3691 139.74 50.3691H185.697Z" fill="#EEEEEE"/>
<path d="M185.697 50.3691C193.596 50.3691 200 56.7727 200 64.6719V169.559C200 177.458 193.596 183.861 185.697 183.861H14.3027C6.40355 183.861 0 177.458 0 169.559V64.6719C9.33284e-06 56.7727 6.40356 50.3691 14.3027 50.3691H60.2588C67.6473 50.3691 73.509 56.3793 77.5616 62.5571C82.3525 69.8605 90.6127 74.6836 100 74.6836C109.387 74.6836 117.647 69.8604 122.438 62.5571C126.49 56.3792 132.352 50.3691 139.74 50.3691H185.697Z" fill="url(#paint4_linear_450_2524)"/>
<path d="M185.697 50.3691C193.596 50.3691 200 56.7727 200 64.6719V169.559C200 177.458 193.596 183.861 185.697 183.861H14.3027C6.40355 183.861 0 177.458 0 169.559V64.6719C9.33284e-06 56.7727 6.40356 50.3691 14.3027 50.3691H60.2588C67.6473 50.3691 73.509 56.3793 77.5616 62.5571C82.3525 69.8605 90.6127 74.6836 100 74.6836C109.387 74.6836 117.647 69.8604 122.438 62.5571C126.49 56.3792 132.352 50.3691 139.74 50.3691H185.697Z" fill="url(#paint5_linear_450_2524)"/>
</g>
<g filter="url(#filter4_ii_450_2524)">
<path d="M179.496 141.82C179.005 142.31 178.594 142.815 178.318 143.555C178.041 144.295 177.904 145.1 177.707 146.373C177.425 148.186 176.873 148.899 176.437 149.349C175.547 150.267 174.282 150.215 172.741 149.911C171.772 149.72 171.52 149.95 170.369 150.945L164.297 156.958L164.295 166.086C164.295 166.251 164.494 166.333 164.61 166.217L182.543 148.312C182.784 148.071 182.921 147.743 182.922 147.401L182.944 138.354L179.497 141.82H179.496Z" fill="#D1D1F2"/>
<path d="M172.26 147.531C173.429 147.565 174.243 148.409 175.205 147.804C176.167 147.198 176.14 146.522 176.326 145.406C176.513 144.29 176.884 142.991 177.214 142.208C177.545 141.423 178.285 140.421 179.037 139.69L182.913 135.657L182.939 131.594C182.94 131.345 182.639 131.219 182.463 131.395L164.836 149.022C164.49 149.368 164.295 149.838 164.295 150.327V154.327L170.249 148.351C170.249 148.351 171.091 147.498 172.259 147.531H172.26H172.26Z" fill="#D1D1F2"/>
<path d="M182.943 128.263L164.295 146.961V142.969C164.295 142.479 164.49 142.009 164.836 141.664L182.467 124.032C182.643 123.856 182.943 123.981 182.943 124.229V128.262V128.263Z" fill="#D1D1F2"/>
<path d="M181.509 121.158L149.937 128.037C148.807 128.283 148 129.284 148 130.441V153.495C148 153.837 148.136 154.166 148.378 154.408L161.663 167.693C161.934 167.964 162.398 167.772 162.398 167.388L162.4 142.682C162.4 141.867 162.724 141.085 163.3 140.509L181.905 121.883C182.209 121.579 181.929 121.067 181.509 121.158V121.158Z" fill="#D1D1F2"/>
</g>
<defs>
<filter id="filter0_i_450_2524" x="3" y="0" width="194.286" height="106.29" filterUnits="userSpaceOnUse" color-interpolation-filters="sRGB">
<feFlood flood-opacity="0" result="BackgroundImageFix"/>
<feBlend mode="normal" in="SourceGraphic" in2="BackgroundImageFix" result="shape"/>
<feColorMatrix in="SourceAlpha" type="matrix" values="0 0 0 0 0 0 0 0 0 0 0 0 0 0 0 0 0 0 127 0" result="hardAlpha"/>
<feOffset dy="2.28571"/>
<feComposite in2="hardAlpha" operator="arithmetic" k2="-1" k3="1"/>
<feColorMatrix type="matrix" values="0 0 0 0 1 0 0 0 0 0.867226 0 0 0 0 0.471154 0 0 0 1 0"/>
<feBlend mode="normal" in2="shape" result="effect1_innerShadow_450_2524"/>
</filter>
<filter id="filter1_i_450_2524" x="2.85706" y="15" width="194.286" height="106.29" filterUnits="userSpaceOnUse" color-interpolation-filters="sRGB">
<feFlood flood-opacity="0" result="BackgroundImageFix"/>
<feBlend mode="normal" in="SourceGraphic" in2="BackgroundImageFix" result="shape"/>
<feColorMatrix in="SourceAlpha" type="matrix" values="0 0 0 0 0 0 0 0 0 0 0 0 0 0 0 0 0 0 127 0" result="hardAlpha"/>
<feOffset dy="2.28571"/>
<feComposite in2="hardAlpha" operator="arithmetic" k2="-1" k3="1"/>
<feColorMatrix type="matrix" values="0 0 0 0 0.6 0 0 0 0 0.853165 0 0 0 0 1 0 0 0 1 0"/>
<feBlend mode="normal" in2="shape" result="effect1_innerShadow_450_2524"/>
</filter>
<filter id="filter2_i_450_2524" x="2.85718" y="31.6665" width="194.286" height="106.29" filterUnits="userSpaceOnUse" color-interpolation-filters="sRGB">
<feFlood flood-opacity="0" result="BackgroundImageFix"/>
<feBlend mode="normal" in="SourceGraphic" in2="BackgroundImageFix" result="shape"/>
<feColorMatrix in="SourceAlpha" type="matrix" values="0 0 0 0 0 0 0 0 0 0 0 0 0 0 0 0 0 0 127 0" result="hardAlpha"/>
<feOffset dy="2.28571"/>
<feComposite in2="hardAlpha" operator="arithmetic" k2="-1" k3="1"/>
<feColorMatrix type="matrix" values="0 0 0 0 1 0 0 0 0 0.65625 0 0 0 0 0.471154 0 0 0 1 0"/>
<feBlend mode="normal" in2="shape" result="effect1_innerShadow_450_2524"/>
</filter>
<filter id="filter3_ii_450_2524" x="0" y="50.3691" width="200" height="133.492" filterUnits="userSpaceOnUse" color-interpolation-filters="sRGB">
<feFlood flood-opacity="0" result="BackgroundImageFix"/>
<feBlend mode="normal" in="SourceGraphic" in2="BackgroundImageFix" result="shape"/>
<feColorMatrix in="SourceAlpha" type="matrix" values="0 0 0 0 0 0 0 0 0 0 0 0 0 0 0 0 0 0 127 0" result="hardAlpha"/>
<feOffset dy="-3.42857"/>
<feComposite in2="hardAlpha" operator="arithmetic" k2="-1" k3="1"/>
<feColorMatrix type="matrix" values="0 0 0 0 0 0 0 0 0 0 0 0 0 0 0 0 0 0 0.2 0"/>
<feBlend mode="normal" in2="shape" result="effect1_innerShadow_450_2524"/>
<feColorMatrix in="SourceAlpha" type="matrix" values="0 0 0 0 0 0 0 0 0 0 0 0 0 0 0 0 0 0 127 0" result="hardAlpha"/>
<feOffset dy="3.42857"/>
<feComposite in2="hardAlpha" operator="arithmetic" k2="-1" k3="1"/>
<feColorMatrix type="matrix" values="0 0 0 0 1 0 0 0 0 1 0 0 0 0 1 0 0 0 1 0"/>
<feBlend mode="normal" in2="effect1_innerShadow_450_2524" result="effect2_innerShadow_450_2524"/>
</filter>
<filter id="filter4_ii_450_2524" x="148" y="121" width="35" height="46.9116" filterUnits="userSpaceOnUse" color-interpolation-filters="sRGB">
<feFlood flood-opacity="0" result="BackgroundImageFix"/>
<feBlend mode="normal" in="SourceGraphic" in2="BackgroundImageFix" result="shape"/>
<feColorMatrix in="SourceAlpha" type="matrix" values="0 0 0 0 0 0 0 0 0 0 0 0 0 0 0 0 0 0 127 0" result="hardAlpha"/>
<feOffset dy="1"/>
<feComposite in2="hardAlpha" operator="arithmetic" k2="-1" k3="1"/>
<feColorMatrix type="matrix" values="0 0 0 0 1 0 0 0 0 1 0 0 0 0 1 0 0 0 1 0"/>
<feBlend mode="normal" in2="shape" result="effect1_innerShadow_450_2524"/>
<feColorMatrix in="SourceAlpha" type="matrix" values="0 0 0 0 0 0 0 0 0 0 0 0 0 0 0 0 0 0 127 0" result="hardAlpha"/>
<feOffset dy="-1"/>
<feComposite in2="hardAlpha" operator="arithmetic" k2="-1" k3="1"/>
<feColorMatrix type="matrix" values="0 0 0 0 0 0 0 0 0 0 0 0 0 0 0 0 0 0 0.1 0"/>
<feBlend mode="normal" in2="effect1_innerShadow_450_2524" result="effect2_innerShadow_450_2524"/>
</filter>
<linearGradient id="paint0_linear_450_2524" x1="29" y1="5" x2="215" y2="93.5" gradientUnits="userSpaceOnUse">
<stop offset="0.354229" stop-color="#FFC414"/>
<stop offset="1" stop-color="#FF9447" stop-opacity="0.5"/>
</linearGradient>
<linearGradient id="paint1_linear_450_2524" x1="57.9996" y1="21.5" x2="214.5" y2="147.5" gradientUnits="userSpaceOnUse">
<stop offset="0.127555" stop-color="#61C5FF"/>
<stop offset="1" stop-color="#2A92FA" stop-opacity="0.5"/>
</linearGradient>
<linearGradient id="paint2_linear_450_2524" x1="53.9998" y1="33.4995" x2="225" y2="204.5" gradientUnits="userSpaceOnUse">
<stop stop-color="#FE6412"/>
<stop offset="1" stop-color="#EB4600" stop-opacity="0.5"/>
</linearGradient>
<linearGradient id="paint3_linear_450_2524" x1="100" y1="56.0902" x2="196.106" y2="204.958" gradientUnits="userSpaceOnUse">
<stop stop-color="white"/>
<stop offset="1" stop-color="#EFEFF8"/>
</linearGradient>
<linearGradient id="paint4_linear_450_2524" x1="-12" y1="94.5" x2="171" y2="180" gradientUnits="userSpaceOnUse">
<stop stop-color="#EEEEEE"/>
<stop offset="1" stop-color="#EFEFF8"/>
</linearGradient>
<linearGradient id="paint5_linear_450_2524" x1="-12" y1="94.5" x2="171" y2="180" gradientUnits="userSpaceOnUse">
<stop stop-color="#EFEFF8"/>
<stop offset="1" stop-color="#E5E5FF"/>
</linearGradient>
</defs>
</svg>
