<svg width="43" height="40" viewBox="0 0 43 40" fill="none" xmlns="http://www.w3.org/2000/svg">
<g opacity="0.75">
<path d="M21.4994 27.6228C20.2973 27.6228 19.2896 28.6305 19.2896 29.8326C19.2896 31.0348 20.2973 32.0425 21.4994 32.0425C22.6574 32.0425 23.7093 31.0348 23.6562 29.8857C23.7093 28.6216 22.7104 27.6228 21.4994 27.6228Z" fill="#D7E2F7"/>
<path d="M41.9536 35.4545C43.3414 33.059 43.3502 30.2039 41.9713 27.8173L28.1289 3.8451C26.7588 1.43197 24.2838 0 21.5083 0C18.7327 0 16.2577 1.44081 14.8877 3.83626L1.02761 27.835C-0.35132 30.2481 -0.342481 33.1209 1.05413 35.5164C2.43306 37.8853 4.89923 39.3084 7.6571 39.3084H35.3065C38.0732 39.3084 40.557 37.8676 41.9536 35.4545ZM38.9483 33.722C38.1792 35.0479 36.818 35.8346 35.2976 35.8346H7.64826C6.14557 35.8346 4.79316 35.0655 4.04182 33.7662C3.28164 32.4491 3.2728 30.8757 4.03298 29.5498L17.893 5.55993C18.6444 4.24287 19.9879 3.46501 21.5083 3.46501C23.0198 3.46501 24.3722 4.25171 25.1236 5.56877L38.9748 29.5587C39.7173 30.8492 39.7084 32.4049 38.9483 33.722Z" fill="#D7E2F7"/>
<path d="M20.9514 12.1098C19.8995 12.4103 19.2454 13.3649 19.2454 14.5229C19.2985 15.2212 19.3427 15.9283 19.3957 16.6266C19.546 19.2873 19.6962 21.8949 19.8465 24.5555C19.8995 25.4571 20.5978 26.1112 21.4994 26.1112C22.4011 26.1112 23.1082 25.4129 23.1524 24.5025C23.1524 23.9544 23.1524 23.4506 23.2054 22.8937C23.3027 21.1877 23.4087 19.4817 23.506 17.7757C23.559 16.6708 23.6562 15.5659 23.7093 14.461C23.7093 14.0632 23.6562 13.7097 23.506 13.3561C23.0552 12.3661 22.0033 11.8622 20.9514 12.1098Z" fill="#D7E2F7"/>
</g>
</svg>
